<?xml version="1.0" encoding="UTF-8"?>
<svg version="1.1" xmlns="http://www.w3.org/2000/svg" width="1280" height="819">
<path d="M0 0 C41.43223077 15.02178967 84.24470725 22.63136395 128.0625 26 C128.82737732 26.05916595 129.59225464 26.11833191 130.38031006 26.17929077 C153.86048433 27.95655447 177.37375794 28.42265234 200.91259766 28.61743164 C202.29903572 28.63004728 203.68547217 28.6428406 205.07190704 28.65580177 C231.98162246 28.9072262 258.89208405 29.05099264 285.80271339 29.16112614 C289.196439 29.1752675 292.59016331 29.18968498 295.98388672 29.2043457 C296.82711158 29.20797717 297.67033644 29.21160863 298.53911357 29.21535014 C312.23701702 29.27605782 325.93378209 29.39623252 339.63105328 29.53858025 C353.75363775 29.68411339 367.87562694 29.76856459 381.99893987 29.79608625 C390.68110798 29.81484539 399.36029374 29.87991106 408.04157726 30.00601696 C413.98715482 30.08775789 419.93112723 30.10964064 425.87720914 30.08553524 C429.29996022 30.07336654 432.71740898 30.08630479 436.13925552 30.17074585 C451.44834849 30.90448894 451.44834849 30.90448894 464.84687424 24.67037773 C468.70331321 20.88783761 471.92379947 16.76466092 474.875 12.25 C475.535 11.26 476.195 10.27 476.875 9.25 C479.672822 8.85571671 479.672822 8.85571671 483.31898499 8.82867432 C484.32270233 8.81530427 484.32270233 8.81530427 485.34669679 8.80166411 C487.59981469 8.7755488 489.85245544 8.77107426 492.10571289 8.76660156 C493.71701077 8.75272012 495.32829876 8.73764656 496.9395752 8.72146606 C501.32628091 8.68204341 505.71284877 8.66274785 510.09970403 8.64943409 C512.8412679 8.64064548 515.58279402 8.62833144 518.32433891 8.61492157 C526.90416609 8.57387344 535.48390707 8.5448892 544.06382567 8.5333159 C553.96335599 8.51988939 563.86164033 8.46733131 573.76079184 8.38031411 C581.41358919 8.31538395 589.06603683 8.28519868 596.71910661 8.28119254 C601.28896877 8.27805237 605.85766103 8.26042428 610.42723274 8.2067337 C614.73123436 8.15715141 619.03319334 8.1508855 623.33737946 8.17715073 C624.9123502 8.17945521 626.48743268 8.16651872 628.06212425 8.13677597 C639.90527994 7.92630569 639.90527994 7.92630569 644.73092461 11.16924286 C647.01396552 13.41787997 648.94578609 15.69585387 650.875 18.25 C652.17924932 19.73644677 653.49050206 21.2168159 654.8125 22.6875 C655.63041016 23.64462891 655.63041016 23.64462891 656.46484375 24.62109375 C658.8413784 27.56687393 658.8413784 27.56687393 662.37040871 28.50069833 C663.43428852 28.50102303 664.49816833 28.50134774 665.59428692 28.50168228 C666.81924018 28.50689778 668.04419343 28.51211327 669.30626649 28.51748681 C670.67819252 28.51316184 672.05011798 28.50864849 673.42204285 28.50396729 C674.87010601 28.50626977 676.31816801 28.50944487 677.76622754 28.51342177 C681.76085157 28.52181043 685.75538065 28.51762584 689.75000513 28.51144934 C694.05394994 28.50694122 698.35787794 28.51390122 702.66181946 28.51940918 C711.10754176 28.52832899 719.55322863 28.5263678 727.99895235 28.5205839 C734.87745611 28.5160689 741.75594992 28.51545384 748.63445473 28.51763153 C749.61326194 28.517938 750.59206915 28.51824446 751.60053718 28.51856022 C753.58928845 28.5191997 755.57803971 28.51984813 757.56679098 28.5205054 C776.25146085 28.52621848 794.93611116 28.51964002 813.62077782 28.50890467 C829.59607207 28.50000874 845.57133717 28.50148641 861.54663086 28.51074219 C880.11904721 28.52149776 898.69144626 28.52562648 917.26386529 28.51951766 C919.25420622 28.51888064 921.24454715 28.51825189 923.23488808 28.51763153 C924.70349488 28.5171687 924.70349488 28.5171687 926.20177051 28.51669653 C933.04410136 28.51498231 939.8864211 28.5178578 946.72875023 28.52259064 C955.10982378 28.52826023 963.49085998 28.52655939 971.87192937 28.51602915 C976.13494045 28.5108465 980.39788979 28.5085848 984.66090012 28.51532745 C1010.94210173 28.55343963 1037.14317903 27.82648856 1063.25 24.5 C1063.9126889 24.41696625 1064.57537781 24.3339325 1065.25814819 24.24838257 C1107.62137531 18.90255414 1149.33234116 9.11141288 1189.03808594 -6.73168945 C1195.84999017 -9.17682306 1202.10151958 -9.3992471 1208.875 -6.75 C1214.56032135 -3.68867312 1217.82591826 0.10275478 1219.875 6.25 C1222.04062838 23.8217442 1213.10746325 43.2882156 1202.70703125 57.13671875 C1201.50633993 58.58665537 1200.27404117 60.01192017 1198.9921875 61.390625 C1197.62110633 63.25260964 1197.62110633 63.25260964 1198.12890625 65.7734375 C1198.71780745 67.72821948 1199.32444763 69.67765719 1199.9375 71.625 C1201.99846735 79.59407375 1200.34916942 84.7501948 1196.5390625 91.6796875 C1192.02179546 99.28191739 1186.38515406 105.50164634 1180.26171875 111.81201172 C1179.08243345 113.03489736 1177.92892815 114.28255976 1176.78125 115.53515625 C1171.97682617 120.65512486 1166.55630919 124.41068031 1160.73046875 128.26953125 C1157.50042046 130.45252924 1157.50042046 130.45252924 1154.875 133.25 C1154.90813913 135.17206962 1154.94429982 137.09419405 1155.00390625 139.015625 C1154.22611693 152.49730651 1139.3054232 164.80932015 1129.875 173.25 C1119.71986677 181.85619513 1106.34324073 190.71377879 1092.875 192.25 C1092.84921875 192.91644531 1092.8234375 193.58289063 1092.796875 194.26953125 C1092.1005306 205.58512767 1088.95308516 215.05261822 1080.875 223.25 C1076.21728099 227.05415512 1071.65993286 227.62783556 1065.875 228.25 C1067.04922076 236.40889987 1068.84635666 244.57118943 1073.875 251.25 C1079.60334912 255.32388804 1085.9213291 257.78356022 1092.52612305 260.09057617 C1104.06785452 264.13320454 1104.06785452 264.13320454 1106.7331543 269.66772461 C1107.10996338 270.51987549 1107.48677246 271.37202637 1107.875 272.25 C1108.83798063 274.0477925 1109.80206365 275.84503687 1110.77891541 277.6353302 C1112.701812 281.1749334 1114.56378868 284.74669533 1116.4375 288.3125 C1117.24602636 289.84549901 1118.05478504 291.37837551 1118.86376953 292.91113281 C1123.83547067 302.33822291 1128.76438652 311.78720979 1133.67578125 321.24584961 C1136.53177854 326.72827357 1139.444463 332.17569284 1142.41772461 337.59545898 C1143.421369 339.43103992 1144.41587782 341.2716491 1145.40063477 343.11743164 C1147.88903474 347.76147316 1150.48240457 352.23378214 1153.390625 356.62890625 C1161.14006298 368.7646085 1161.14006298 368.7646085 1160.70166016 374.52929688 C1159.26721812 379.63405671 1156.42728539 383.94706251 1153.60205078 388.38623047 C1150.51984603 393.49709585 1148.0114586 398.90938391 1145.40414429 404.2729187 C1143.80094251 407.5519535 1142.15998609 410.81176801 1140.515625 414.0703125 C1140.19917526 414.69761765 1139.88272552 415.32492279 1139.5566864 415.97123718 C1136.61831645 421.78146554 1133.59522301 427.54413325 1130.53393555 433.2902832 C1125.11037205 443.50543922 1120.01233535 453.88886457 1114.875 464.25 C1110.33768162 463.45690534 1106.62407412 461.79985317 1102.5625 459.6875 C1101.91732422 459.35814453 1101.27214844 459.02878906 1100.60742188 458.68945312 C1099.02714772 457.88175745 1097.45067895 457.06662387 1095.875 456.25 C1096.04628418 456.79301758 1096.21756836 457.33603516 1096.39404297 457.89550781 C1097.18760591 460.42783627 1097.96880183 462.96383107 1098.75 465.5 C1099.01941406 466.35335938 1099.28882813 467.20671875 1099.56640625 468.0859375 C1109.79870115 501.52807205 1103.91577659 537.12446717 1087.875 567.6015625 C1075.8896609 589.74688733 1058.34926863 610.36859404 1038.65625 626.0234375 C1035.85664911 628.26469102 1033.15316477 630.59562055 1030.4375 632.9375 C961.90455648 689.8576726 868.15998774 717.03483895 650.8125 749.85546875 C649.77915527 749.92507813 648.74581055 749.9946875 647.68115234 750.06640625 C645.95386948 750.17941449 644.22476385 750.27027403 642.49462891 750.32421875 C638.6041258 750.55795937 636.930797 751.20357572 633.8984375 753.7265625 C632.99520566 754.75852019 632.11273193 755.80895214 631.25 756.875 C630.77908936 757.42115967 630.30817871 757.96731934 629.82299805 758.5300293 C628.48693227 760.08634853 627.17998552 761.66752911 625.875 763.25 C622.17914663 767.6866703 618.47690403 771.56762125 614.06640625 775.30859375 C611.61559942 777.47980764 609.34842971 779.78110694 607.0625 782.125 C601.98885728 787.26128028 596.53587519 791.78043034 590.875 796.25 C590.02550781 797.01570312 589.17601562 797.78140625 588.30078125 798.5703125 C585.875 800.25 585.875 800.25 583.859375 800.2578125 C581.19807023 798.90620496 579.30045083 797.16881527 577.125 795.125 C575.79855469 793.89523437 575.79855469 793.89523437 574.4453125 792.640625 C573.59710937 791.85171875 572.74890625 791.0628125 571.875 790.25 C570.58870544 789.1188616 569.2974604 787.99331315 568 786.875 C537.87318503 760.57477645 537.87318503 760.57477645 532.875 750.25 C532.31256592 750.2406543 531.75013184 750.23130859 531.1706543 750.22167969 C447.19721817 748.52943619 361.9469026 732.76455727 135.875 630.25 C135.04645508 629.57155029 135.04645508 629.57155029 134.20117188 628.87939453 C119.48527876 616.82123524 106.14210683 603.60214556 94.875 588.25 C94.24464844 587.4146875 93.61429688 586.579375 92.96484375 585.71875 C70.83156548 555.46825578 61.06350973 519.56933106 66.31079102 482.41967773 C67.84392781 473.00331146 70.87817959 464.11613955 74.16650391 455.18505859 C74.76502207 453.5503739 75.32450767 451.90147698 75.875 450.25 C75.01221436 450.67933838 74.14942871 451.10867676 73.26049805 451.55102539 C70.06177923 453.13950903 66.85675876 454.71489389 63.6496582 456.28637695 C62.26183152 456.96868314 60.87574541 457.65454151 59.49145508 458.34399414 C57.50267018 459.33375488 55.50799894 460.31061989 53.51171875 461.28515625 C52.89286301 461.59655045 52.27400726 461.90794464 51.63639832 462.22877502 C47.21661512 464.36387171 47.21661512 464.36387171 43.875 463.25 C42.7842865 461.66311646 42.7842865 461.66311646 41.76538086 459.58251953 C41.37744858 458.80304962 40.9895163 458.02357971 40.58982849 457.2204895 C40.17733353 456.36655609 39.76483856 455.51262268 39.33984375 454.6328125 C38.6826107 453.30417679 38.6826107 453.30417679 38.01210022 451.94869995 C36.60275793 449.09535366 35.20712702 446.23556336 33.8125 443.375 C31.99225036 439.66731139 30.16662881 435.96228477 28.33984375 432.2578125 C27.88731735 431.33830307 27.43479095 430.41879364 26.96855164 429.47142029 C22.44222968 420.30621691 17.68373683 411.26942255 12.875 402.25 C10.96044303 398.65512379 9.06099376 395.05391988 7.1875 391.4375 C6.74728516 390.61958984 6.30707031 389.80167969 5.85351562 388.95898438 C5.44423828 388.16169922 5.03496094 387.36441406 4.61328125 386.54296875 C4.25274658 385.8574292 3.89221191 385.17188965 3.52075195 384.46557617 C2.35195048 380.4554161 3.42653477 377.22796892 5.12744141 373.51879883 C5.65515137 372.59091553 6.18286133 371.66303223 6.7265625 370.70703125 C7.62109131 369.11713379 7.62109131 369.11713379 8.53369141 367.49511719 C9.18257324 366.36235352 9.83145508 365.22958984 10.5 364.0625 C11.17851194 362.86283603 11.85606696 361.6626304 12.53271484 360.46191406 C13.94005575 357.96618656 15.35149097 355.47284108 16.765625 352.98095703 C20.05337809 347.17785435 23.271136 341.33601341 26.5 335.5 C31.60332502 326.30279161 36.75306109 317.13320233 41.94384766 307.98510742 C44.93649719 302.70355507 47.90380679 297.40872297 50.84375 292.09765625 C51.17983276 291.49082001 51.51591553 290.88398376 51.86218262 290.25875854 C53.49918796 287.3018401 55.13332037 284.34340945 56.76367188 281.3828125 C57.93599526 279.26219279 59.12120585 277.14863073 60.32104492 275.04345703 C61.86085178 272.36541444 61.86085178 272.36541444 62.9230957 269.93701172 C66.52511052 262.62773694 73.97232868 260.30115268 81.0625 257.25 C82.37268831 256.66225501 83.68194431 256.0724271 84.99023438 255.48046875 C94.44181574 251.25 94.44181574 251.25 96.875 251.25 C97.04515625 250.59515625 97.2153125 249.9403125 97.390625 249.265625 C99.2775797 242.15943391 101.48483439 235.20210608 103.875 228.25 C102.67875 228.1675 101.4825 228.085 100.25 228 C93.12474516 227.06081878 88.93367187 222.69907904 84.48046875 217.390625 C78.82107134 209.84476178 76.48534466 201.60172827 76.875 192.25 C75.67875 192.064375 74.4825 191.87875 73.25 191.6875 C54.92959868 187.53028843 37.6112223 173.3885194 25.875 159.25 C25.17761719 158.42886719 24.48023437 157.60773438 23.76171875 156.76171875 C16.532955 148.05284249 16.532955 148.05284249 14.875 142.25 C15.0513741 140.60293722 15.23974358 138.95713248 15.4375 137.3125 C15.63705298 134.71247978 15.63705298 134.71247978 14.875 132.25 C11.78043595 129.39685584 8.25112021 127.46707113 4.62890625 125.35107422 C-9.55929316 116.44395015 -25.99260117 100.02466275 -30.875 83.75 C-31.69684372 75.5315628 -31.69684372 75.5315628 -30.13671875 72.03515625 C-28.90717844 69.27651489 -28.23574494 67.28270763 -28.125 64.25 C-29.89738025 60.79613079 -32.14215885 57.85507478 -34.50390625 54.796875 C-44.25345238 42.06423212 -51.19988563 24.60080465 -50.61328125 8.578125 C-49.71196003 2.43471957 -47.01957061 -0.90400812 -42.6875 -5.125 C-29.34979877 -13.58305444 -13.24821363 -4.9196386 0 0 Z " fill="#013366" transform="translate(56.125,13.75)"/>
<path d="M0 0 C41.43223077 15.02178967 84.24470725 22.63136395 128.0625 26 C128.82737732 26.05916595 129.59225464 26.11833191 130.38031006 26.17929077 C153.86048433 27.95655447 177.37375794 28.42265234 200.91259766 28.61743164 C202.29903572 28.63004728 203.68547217 28.6428406 205.07190704 28.65580177 C231.98162246 28.9072262 258.89208405 29.05099264 285.80271339 29.16112614 C289.196439 29.1752675 292.59016331 29.18968498 295.98388672 29.2043457 C296.82711158 29.20797717 297.67033644 29.21160863 298.53911357 29.21535014 C312.23701702 29.27605782 325.93378209 29.39623252 339.63105328 29.53858025 C353.75363775 29.68411339 367.87562694 29.76856459 381.99893987 29.79608625 C390.68110798 29.81484539 399.36029374 29.87991106 408.04157726 30.00601696 C413.98715482 30.08775789 419.93112723 30.10964064 425.87720914 30.08553524 C429.29996022 30.07336654 432.71740898 30.08630479 436.13925552 30.17074585 C451.44834849 30.90448894 451.44834849 30.90448894 464.84687424 24.67037773 C468.70331321 20.88783761 471.92379947 16.76466092 474.875 12.25 C475.535 11.26 476.195 10.27 476.875 9.25 C479.672822 8.85571671 479.672822 8.85571671 483.31898499 8.82867432 C484.32270233 8.81530427 484.32270233 8.81530427 485.34669679 8.80166411 C487.59981469 8.7755488 489.85245544 8.77107426 492.10571289 8.76660156 C493.71701077 8.75272012 495.32829876 8.73764656 496.9395752 8.72146606 C501.32628091 8.68204341 505.71284877 8.66274785 510.09970403 8.64943409 C512.8412679 8.64064548 515.58279402 8.62833144 518.32433891 8.61492157 C526.90416609 8.57387344 535.48390707 8.5448892 544.06382567 8.5333159 C553.96335599 8.51988939 563.86164033 8.46733131 573.76079184 8.38031411 C581.41358919 8.31538395 589.06603683 8.28519868 596.71910661 8.28119254 C601.28896877 8.27805237 605.85766103 8.26042428 610.42723274 8.2067337 C614.73123436 8.15715141 619.03319334 8.1508855 623.33737946 8.17715073 C624.9123502 8.17945521 626.48743268 8.16651872 628.06212425 8.13677597 C639.90527994 7.92630569 639.90527994 7.92630569 644.73092461 11.16924286 C647.01396552 13.41787997 648.94578609 15.69585387 650.875 18.25 C652.17924932 19.73644677 653.49050206 21.2168159 654.8125 22.6875 C655.63041016 23.64462891 655.63041016 23.64462891 656.46484375 24.62109375 C658.8413784 27.56687393 658.8413784 27.56687393 662.37040871 28.50069833 C663.43428852 28.50102303 664.49816833 28.50134774 665.59428692 28.50168228 C666.81924018 28.50689778 668.04419343 28.51211327 669.30626649 28.51748681 C670.67819252 28.51316184 672.05011798 28.50864849 673.42204285 28.50396729 C674.87010601 28.50626977 676.31816801 28.50944487 677.76622754 28.51342177 C681.76085157 28.52181043 685.75538065 28.51762584 689.75000513 28.51144934 C694.05394994 28.50694122 698.35787794 28.51390122 702.66181946 28.51940918 C711.10754176 28.52832899 719.55322863 28.5263678 727.99895235 28.5205839 C734.87745611 28.5160689 741.75594992 28.51545384 748.63445473 28.51763153 C749.61326194 28.517938 750.59206915 28.51824446 751.60053718 28.51856022 C753.58928845 28.5191997 755.57803971 28.51984813 757.56679098 28.5205054 C776.25146085 28.52621848 794.93611116 28.51964002 813.62077782 28.50890467 C829.59607207 28.50000874 845.57133717 28.50148641 861.54663086 28.51074219 C880.11904721 28.52149776 898.69144626 28.52562648 917.26386529 28.51951766 C919.25420622 28.51888064 921.24454715 28.51825189 923.23488808 28.51763153 C924.70349488 28.5171687 924.70349488 28.5171687 926.20177051 28.51669653 C933.04410136 28.51498231 939.8864211 28.5178578 946.72875023 28.52259064 C955.10982378 28.52826023 963.49085998 28.52655939 971.87192937 28.51602915 C976.13494045 28.5108465 980.39788979 28.5085848 984.66090012 28.51532745 C1010.94210173 28.55343963 1037.14317903 27.82648856 1063.25 24.5 C1063.9126889 24.41696625 1064.57537781 24.3339325 1065.25814819 24.24838257 C1107.62137531 18.90255414 1149.33234116 9.11141288 1189.03808594 -6.73168945 C1195.84999017 -9.17682306 1202.10151958 -9.3992471 1208.875 -6.75 C1214.56032135 -3.68867312 1217.82591826 0.10275478 1219.875 6.25 C1222.04062838 23.8217442 1213.10746325 43.2882156 1202.70703125 57.13671875 C1201.50633993 58.58665537 1200.27404117 60.01192017 1198.9921875 61.390625 C1197.62110633 63.25260964 1197.62110633 63.25260964 1198.12890625 65.7734375 C1198.71780745 67.72821948 1199.32444763 69.67765719 1199.9375 71.625 C1201.99846735 79.59407375 1200.34916942 84.7501948 1196.5390625 91.6796875 C1192.02179546 99.28191739 1186.38515406 105.50164634 1180.26171875 111.81201172 C1179.08243345 113.03489736 1177.92892815 114.28255976 1176.78125 115.53515625 C1171.97682617 120.65512486 1166.55630919 124.41068031 1160.73046875 128.26953125 C1157.50042046 130.45252924 1157.50042046 130.45252924 1154.875 133.25 C1154.90813913 135.17206962 1154.94429982 137.09419405 1155.00390625 139.015625 C1154.22611693 152.49730651 1139.3054232 164.80932015 1129.875 173.25 C1119.71986677 181.85619513 1106.34324073 190.71377879 1092.875 192.25 C1092.84921875 192.91644531 1092.8234375 193.58289063 1092.796875 194.26953125 C1092.1005306 205.58512767 1088.95308516 215.05261822 1080.875 223.25 C1076.21728099 227.05415512 1071.65993286 227.62783556 1065.875 228.25 C1067.04922076 236.40889987 1068.84635666 244.57118943 1073.875 251.25 C1079.60334912 255.32388804 1085.9213291 257.78356022 1092.52612305 260.09057617 C1104.06785452 264.13320454 1104.06785452 264.13320454 1106.7331543 269.66772461 C1107.10996338 270.51987549 1107.48677246 271.37202637 1107.875 272.25 C1108.83798063 274.0477925 1109.80206365 275.84503687 1110.77891541 277.6353302 C1112.701812 281.1749334 1114.56378868 284.74669533 1116.4375 288.3125 C1117.24602636 289.84549901 1118.05478504 291.37837551 1118.86376953 292.91113281 C1123.83547067 302.33822291 1128.76438652 311.78720979 1133.67578125 321.24584961 C1136.53177854 326.72827357 1139.444463 332.17569284 1142.41772461 337.59545898 C1143.421369 339.43103992 1144.41587782 341.2716491 1145.40063477 343.11743164 C1147.88903474 347.76147316 1150.48240457 352.23378214 1153.390625 356.62890625 C1161.14006298 368.7646085 1161.14006298 368.7646085 1160.70166016 374.52929688 C1159.26721812 379.63405671 1156.42728539 383.94706251 1153.60205078 388.38623047 C1150.51984603 393.49709585 1148.0114586 398.90938391 1145.40414429 404.2729187 C1143.80094251 407.5519535 1142.15998609 410.81176801 1140.515625 414.0703125 C1140.19917526 414.69761765 1139.88272552 415.32492279 1139.5566864 415.97123718 C1136.61831645 421.78146554 1133.59522301 427.54413325 1130.53393555 433.2902832 C1125.11037205 443.50543922 1120.01233535 453.88886457 1114.875 464.25 C1110.33768162 463.45690534 1106.62407412 461.79985317 1102.5625 459.6875 C1101.91732422 459.35814453 1101.27214844 459.02878906 1100.60742188 458.68945312 C1099.02714772 457.88175745 1097.45067895 457.06662387 1095.875 456.25 C1096.04628418 456.79301758 1096.21756836 457.33603516 1096.39404297 457.89550781 C1097.18760591 460.42783627 1097.96880183 462.96383107 1098.75 465.5 C1099.01941406 466.35335938 1099.28882813 467.20671875 1099.56640625 468.0859375 C1109.79870115 501.52807205 1103.91577659 537.12446717 1087.875 567.6015625 C1075.8896609 589.74688733 1058.34926863 610.36859404 1038.65625 626.0234375 C1035.85664911 628.26469102 1033.15316477 630.59562055 1030.4375 632.9375 C961.90455648 689.8576726 868.15998774 717.03483895 650.8125 749.85546875 C649.77915527 749.92507813 648.74581055 749.9946875 647.68115234 750.06640625 C645.95386948 750.17941449 644.22476385 750.27027403 642.49462891 750.32421875 C638.6041258 750.55795937 636.930797 751.20357572 633.8984375 753.7265625 C632.99520566 754.75852019 632.11273193 755.80895214 631.25 756.875 C630.77908936 757.42115967 630.30817871 757.96731934 629.82299805 758.5300293 C628.48693227 760.08634853 627.17998552 761.66752911 625.875 763.25 C622.17914663 767.6866703 618.47690403 771.56762125 614.06640625 775.30859375 C611.61559942 777.47980764 609.34842971 779.78110694 607.0625 782.125 C601.98885728 787.26128028 596.53587519 791.78043034 590.875 796.25 C590.02550781 797.01570312 589.17601562 797.78140625 588.30078125 798.5703125 C585.875 800.25 585.875 800.25 583.859375 800.2578125 C581.19807023 798.90620496 579.30045083 797.16881527 577.125 795.125 C575.79855469 793.89523437 575.79855469 793.89523437 574.4453125 792.640625 C573.59710937 791.85171875 572.74890625 791.0628125 571.875 790.25 C570.58870544 789.1188616 569.2974604 787.99331315 568 786.875 C537.87318503 760.57477645 537.87318503 760.57477645 532.875 750.25 C532.31256592 750.2406543 531.75013184 750.23130859 531.1706543 750.22167969 C447.19721817 748.52943619 361.9469026 732.76455727 135.875 630.25 C135.04645508 629.57155029 135.04645508 629.57155029 134.20117188 628.87939453 C119.48527876 616.82123524 106.14210683 603.60214556 94.875 588.25 C94.24464844 587.4146875 93.61429688 586.579375 92.96484375 585.71875 C70.83156548 555.46825578 61.06350973 519.56933106 66.31079102 482.41967773 C67.84392781 473.00331146 70.87817959 464.11613955 74.16650391 455.18505859 C74.76502207 453.5503739 75.32450767 451.90147698 75.875 450.25 C75.01221436 450.67933838 74.14942871 451.10867676 73.26049805 451.55102539 C70.06177923 453.13950903 66.85675876 454.71489389 63.6496582 456.28637695 C62.26183152 456.96868314 60.87574541 457.65454151 59.49145508 458.34399414 C57.50267018 459.33375488 55.50799894 460.31061989 53.51171875 461.28515625 C52.89286301 461.59655045 52.27400726 461.90794464 51.63639832 462.22877502 C47.21661512 464.36387171 47.21661512 464.36387171 43.875 463.25 C42.7842865 461.66311646 42.7842865 461.66311646 41.76538086 459.58251953 C41.37744858 458.80304962 40.9895163 458.02357971 40.58982849 457.2204895 C40.17733353 456.36655609 39.76483856 455.51262268 39.33984375 454.6328125 C38.6826107 453.30417679 38.6826107 453.30417679 38.01210022 451.94869995 C36.60275793 449.09535366 35.20712702 446.23556336 33.8125 443.375 C31.99225036 439.66731139 30.16662881 435.96228477 28.33984375 432.2578125 C27.88731735 431.33830307 27.43479095 430.41879364 26.96855164 429.47142029 C22.44222968 420.30621691 17.68373683 411.26942255 12.875 402.25 C10.96044303 398.65512379 9.06099376 395.05391988 7.1875 391.4375 C6.74728516 390.61958984 6.30707031 389.80167969 5.85351562 388.95898438 C5.44423828 388.16169922 5.03496094 387.36441406 4.61328125 386.54296875 C4.25274658 385.8574292 3.89221191 385.17188965 3.52075195 384.46557617 C2.35195048 380.4554161 3.42653477 377.22796892 5.12744141 373.51879883 C5.65515137 372.59091553 6.18286133 371.66303223 6.7265625 370.70703125 C7.62109131 369.11713379 7.62109131 369.11713379 8.53369141 367.49511719 C9.18257324 366.36235352 9.83145508 365.22958984 10.5 364.0625 C11.17851194 362.86283603 11.85606696 361.6626304 12.53271484 360.46191406 C13.94005575 357.96618656 15.35149097 355.47284108 16.765625 352.98095703 C20.05337809 347.17785435 23.271136 341.33601341 26.5 335.5 C31.60332502 326.30279161 36.75306109 317.13320233 41.94384766 307.98510742 C44.93649719 302.70355507 47.90380679 297.40872297 50.84375 292.09765625 C51.17983276 291.49082001 51.51591553 290.88398376 51.86218262 290.25875854 C53.49918796 287.3018401 55.13332037 284.34340945 56.76367188 281.3828125 C57.93599526 279.26219279 59.12120585 277.14863073 60.32104492 275.04345703 C61.86085178 272.36541444 61.86085178 272.36541444 62.9230957 269.93701172 C66.52511052 262.62773694 73.97232868 260.30115268 81.0625 257.25 C82.37268831 256.66225501 83.68194431 256.0724271 84.99023438 255.48046875 C94.44181574 251.25 94.44181574 251.25 96.875 251.25 C97.04515625 250.59515625 97.2153125 249.9403125 97.390625 249.265625 C99.2775797 242.15943391 101.48483439 235.20210608 103.875 228.25 C102.67875 228.1675 101.4825 228.085 100.25 228 C93.12474516 227.06081878 88.93367187 222.69907904 84.48046875 217.390625 C78.82107134 209.84476178 76.48534466 201.60172827 76.875 192.25 C75.67875 192.064375 74.4825 191.87875 73.25 191.6875 C54.92959868 187.53028843 37.6112223 173.3885194 25.875 159.25 C25.17761719 158.42886719 24.48023437 157.60773438 23.76171875 156.76171875 C16.532955 148.05284249 16.532955 148.05284249 14.875 142.25 C15.0513741 140.60293722 15.23974358 138.95713248 15.4375 137.3125 C15.63705298 134.71247978 15.63705298 134.71247978 14.875 132.25 C11.78043595 129.39685584 8.25112021 127.46707113 4.62890625 125.35107422 C-9.55929316 116.44395015 -25.99260117 100.02466275 -30.875 83.75 C-31.69684372 75.5315628 -31.69684372 75.5315628 -30.13671875 72.03515625 C-28.90717844 69.27651489 -28.23574494 67.28270763 -28.125 64.25 C-29.89738025 60.79613079 -32.14215885 57.85507478 -34.50390625 54.796875 C-44.25345238 42.06423212 -51.19988563 24.60080465 -50.61328125 8.578125 C-49.71196003 2.43471957 -47.01957061 -0.90400812 -42.6875 -5.125 C-29.34979877 -13.58305444 -13.24821363 -4.9196386 0 0 Z M-32.125 10.25 C-32.64359391 16.05825174 -30.8431314 20.47678606 -28.6875 25.75 C-28.32696533 26.63494141 -27.96643066 27.51988281 -27.5949707 28.43164062 C-18.37070908 50.3395102 -2.91805573 65.90833324 17.875 77.25 C7.975 77.25 -1.925 77.25 -12.125 77.25 C-8.23431889 92.81272445 9.09781021 107.06694731 22.25 115.0625 C32.86211257 121.27927727 43.8407547 124.82739415 55.875 127.25 C49.44488606 132.89595371 42.00448597 134.37718406 33.875 136.25 C35.40164605 146.19633033 47.50311392 155.27887452 54.875 161.25 C58.42497102 163.81698048 62.06773035 166.0858118 65.875 168.25 C66.79796875 168.78496094 67.7209375 169.31992188 68.671875 169.87109375 C77.45434646 174.63024383 87.79081069 178.25 97.875 178.25 C97.55402344 179.10078125 97.23304688 179.9515625 96.90234375 180.828125 C94.23982981 189.69642237 95.09336192 198.28446304 99.29296875 206.45703125 C101.36988592 208.81087071 102.78547233 209.03378111 105.875 209.25 C106.865 208.92 107.855 208.59 108.875 208.25 C113.17513364 207.83126039 116.80569736 207.7949776 120.8125 209.5 C123.47718261 211.76094282 124.66705832 213.81347026 125.17028809 217.28994751 C125.1905784 223.12715495 124.03256903 227.87908984 122.03125 233.3359375 C121.74270142 234.15953766 121.45415283 234.98313782 121.15686035 235.83169556 C120.24267424 238.43432051 119.30990624 241.02975434 118.375 243.625 C117.44343636 246.24270824 116.51588876 248.86174617 115.59313965 251.48257446 C115.02030403 253.10621518 114.44181145 254.72787369 113.85705566 256.34725952 C112.75821088 259.43566645 111.875 261.94567345 111.875 265.25 C110.62203125 265.65734375 109.3690625 266.0646875 108.078125 266.484375 C106.34250887 267.06924642 104.60822356 267.658076 102.875 268.25 C101.98748047 268.54970703 101.09996094 268.84941406 100.18554688 269.15820312 C84.706477 274.66065694 76.99310737 281.02518427 69.90625 295.8125 C69.42027344 296.86179687 68.93429688 297.91109375 68.43359375 298.9921875 C65.68945667 304.72805298 62.50211067 310.21668991 59.375 315.75 C58.10250756 318.04074583 56.83166085 320.33240666 55.5625 322.625 C52.19652157 328.68376117 48.7922238 334.72003922 45.375 340.75 C44.33069838 342.60154514 43.28642799 344.45310788 42.2421875 346.3046875 C40.10330747 350.09322877 37.94466478 353.86953612 35.77093506 357.63812256 C34.35036819 360.10740843 32.94186635 362.58345193 31.53540039 365.06079102 C30.85067225 366.26055871 30.16080239 367.45740798 29.46557617 368.65112305 C28.49763091 370.31444883 27.54916673 371.98906491 26.6015625 373.6640625 C26.05064941 374.6226416 25.49973633 375.5812207 24.93212891 376.56884766 C23.65148353 379.81689559 23.74537066 380.96889988 24.875 384.25 C26.04848564 386.77861823 27.25962398 389.22945762 28.55859375 391.69140625 C28.93018112 392.40809479 29.30176849 393.12478333 29.68461609 393.8631897 C30.88840616 396.18253605 32.10048883 398.49744095 33.3125 400.8125 C34.54795293 403.18892286 35.78112714 405.56651829 37.01409912 407.94422913 C37.82839929 409.51435633 38.64337849 411.08413157 39.45904541 412.65354919 C42.69655095 418.88687063 45.87277844 425.14799967 49 431.4375 C49.40661865 432.25484619 49.8132373 433.07219238 50.23217773 433.91430664 C51.11496182 435.69195689 51.99534539 437.47079909 52.875 439.25 C56.48428752 438.65964367 59.3508418 437.68228637 62.6015625 436.01953125 C63.53315186 435.55321289 64.46474121 435.08689453 65.42456055 434.60644531 C66.43945557 434.09694336 67.45435059 433.58744141 68.5 433.0625 C91.52360937 421.76159729 115.69483455 412.74074512 139.875 404.25 C140.205 404.58 140.535 404.91 140.875 405.25 C139.94300781 406.13558594 139.01101562 407.02117187 138.05078125 407.93359375 C112.18692329 432.89935366 92.39520864 464.66959499 91.51879883 501.52661133 C91.29785559 535.00381643 106.67164875 565.67958037 129.41015625 589.6328125 C131.38143295 591.72592722 133.2411256 593.8413117 135.0625 596.0625 C137.62170192 599.07587015 140.42659814 601.63431657 143.44140625 604.1875 C145.28479413 605.74979342 147.0982966 607.3309191 148.90234375 608.9375 C175.90159244 632.80881109 208.182152 650.47655245 240.875 665.25 C241.959021 665.74113281 241.959021 665.74113281 243.06494141 666.2421875 C266.30324731 676.64916419 290.68081319 685.55239231 315.17333984 692.48046875 C317.9314156 693.26606922 320.6784277 694.08400394 323.42578125 694.90625 C342.28775724 700.46369726 361.48410401 704.59121566 380.68707275 708.77154541 C383.72451295 709.43577097 386.75851917 710.11523065 389.79296875 710.79296875 C402.3665226 713.55710612 414.98053713 715.54526758 427.73828125 717.2578125 C432.36614057 717.88020722 436.97247137 718.58463177 441.579422 719.3425293 C451.51313534 720.96898224 461.44579884 722.16582165 471.46435547 723.13037109 C474.00690741 723.3756664 476.54836455 723.63057043 479.08984375 723.88671875 C487.82415984 724.75305545 496.54603524 725.48986097 505.31472778 725.90213013 C508.23213154 726.04750147 511.05119367 726.28006435 513.93261719 726.77172852 C517.19858461 727.30259727 520.27798569 727.36283034 523.5859375 727.34765625 C524.82988281 727.34443359 526.07382812 727.34121094 527.35546875 727.33789062 C528.64066406 727.32951172 529.92585937 727.32113281 531.25 727.3125 C532.55839844 727.30798828 533.86679687 727.30347656 535.21484375 727.29882812 C538.43494281 727.28707594 541.6549477 727.27064543 544.875 727.25 C545.15625732 727.85344238 545.43751465 728.45688477 545.72729492 729.07861328 C547.37939531 732.20428459 549.77232378 734.58112741 552.1875 737.125 C553.27228544 738.28110925 554.35691535 739.43736445 555.44140625 740.59375 C556.0048877 741.191875 556.56836914 741.79 557.14892578 742.40625 C558.87282219 744.24767371 560.57758853 746.10503913 562.27734375 747.96875 C567.39409634 753.56659018 572.45231457 759.04699103 578.28515625 763.91796875 C580.2692742 765.58033784 582.08327199 767.38361666 583.875 769.25 C588.14232045 767.59800863 590.99526364 764.39991497 594.14453125 761.2109375 C594.743759 760.61125153 595.34298676 760.01156555 595.96037292 759.39370728 C597.22766537 758.12339709 598.49252983 756.8506607 599.75512695 755.57568359 C601.66509818 753.6476141 603.58279036 751.72750968 605.50195312 749.80859375 C615.90737239 739.6418169 615.90737239 739.6418169 624.875 728.25 C627.94481556 727.86440914 630.83277159 727.66683459 633.9140625 727.58984375 C634.82771576 727.55443985 635.74136902 727.51903595 636.68270874 727.4825592 C639.62149647 727.37049936 642.56046846 727.27776567 645.5 727.1875 C657.04509461 726.80246954 668.43724257 726.36328226 679.88867188 724.77856445 C684.35019122 724.16441997 688.82507717 723.73857768 693.30859375 723.3203125 C694.94890125 723.16577521 696.58920064 723.01115182 698.22949219 722.85644531 C699.05880249 722.77833618 699.88811279 722.70022705 700.74255371 722.61975098 C715.62894354 721.20203323 730.40290645 719.57776642 745.12695312 716.921875 C747.97315471 716.41166482 750.82028314 715.91218336 753.66992188 715.421875 C776.77865423 711.44321562 799.65486651 707.02557913 822.36132812 701.15527344 C825.6266602 700.31398305 828.89732231 699.4998272 832.171875 698.6953125 C844.13814711 695.71866253 855.79766654 692.09255414 867.45703125 688.08203125 C870.81964101 686.92614339 874.18432638 685.85271192 877.6015625 684.87109375 C884.67470902 682.77764302 891.55045516 680.12981435 898.4375 677.5 C899.17232605 677.21954834 899.9071521 676.93909668 900.66424561 676.65014648 C940.68833164 661.30103589 979.3630788 642.27174965 1012.875 615.25 C1013.43413086 614.8065625 1013.99326172 614.363125 1014.56933594 613.90625 C1043.90421132 590.56643405 1071.63297794 557.67215185 1076.875 519.25 C1077.19899223 514.24993455 1077.26697163 509.25896989 1077.25 504.25 C1077.24845917 503.5630304 1077.24691833 502.87606079 1077.24533081 502.16827393 C1077.05932062 467.30074064 1060.88649609 439.50940316 1037.72265625 414.34375 C1035.875 412.25 1035.875 412.25 1033.875 409.25 C1045.38231652 413.80470037 1056.86326653 418.42614261 1068.3125 423.125 C1068.92819855 423.37740448 1069.54389709 423.62980896 1070.17825317 423.88986206 C1079.49298512 427.72045727 1088.63631256 431.83171396 1097.61889648 436.39208984 C1098.80140991 436.98111084 1098.80140991 436.98111084 1100.0078125 437.58203125 C1100.68730957 437.92983643 1101.36680664 438.2776416 1102.06689453 438.63598633 C1104.07213418 439.52011443 1104.07213418 439.52011443 1106.875 438.25 C1108.04327368 436.63314037 1108.04327368 436.63314037 1108.98461914 434.58251953 C1109.56651756 433.41331467 1109.56651756 433.41331467 1110.16017151 432.2204895 C1110.57266647 431.36655609 1110.98516144 430.51262268 1111.41015625 429.6328125 C1112.0673893 428.30417679 1112.0673893 428.30417679 1112.73789978 426.94869995 C1114.14724207 424.09535366 1115.54287298 421.23556336 1116.9375 418.375 C1118.30417999 415.59119291 1119.6737614 412.80884036 1121.04501343 410.02728271 C1121.95567781 408.17981457 1122.86438813 406.33138195 1123.77114868 404.48199463 C1126.02984167 399.89518048 1128.33605365 395.34432335 1130.75341797 390.83886719 C1131.21421249 389.97969696 1131.67500702 389.12052673 1132.14976501 388.23532104 C1133.02113983 386.62170787 1133.90003285 385.01212258 1134.78785706 383.40750122 C1136.95732703 379.39744554 1138.83277331 375.90822958 1138.875 371.25 C1137.92505217 368.70893107 1136.96157174 366.57479075 1135.67578125 364.21875 C1135.15680771 363.22287369 1135.15680771 363.22287369 1134.62734985 362.20687866 C1133.49615959 360.0460535 1132.34229622 357.89828796 1131.1875 355.75 C1130.39463101 354.24693296 1129.60305488 352.74318327 1128.81274414 351.23876953 C1124.109285 342.3138867 1119.30633815 333.44104408 1114.4230957 324.61328125 C1109.17032762 315.08011379 1104.23758115 305.38056079 1099.30444336 295.67919922 C1098.65089507 294.40070788 1097.99733132 293.12222445 1097.34375 291.84375 C1096.77076172 290.71646484 1096.19777344 289.58917969 1095.60742188 288.42773438 C1092.12452774 282.0391563 1090.01573159 278.77400315 1083.09765625 276.0234375 C1081.76570966 275.46097477 1080.43434668 274.89712838 1079.10351562 274.33203125 C1077.02522036 273.4729079 1074.94378178 272.627461 1072.84985352 271.80712891 C1061.26013813 267.21505503 1061.26013813 267.21505503 1057.98681641 262.57128906 C1056.68626118 259.49706563 1055.75472427 256.46859838 1054.875 253.25 C1054.08308205 251.0776671 1053.27558292 248.91095517 1052.453125 246.75 C1051.67394725 244.58445916 1050.89790824 242.41778642 1050.125 240.25 C1049.72667969 239.14527344 1049.32835937 238.04054687 1048.91796875 236.90234375 C1043.66957805 222.26022326 1043.66957805 222.26022326 1044.875 214.25 C1047.3125 211.1875 1047.3125 211.1875 1049.875 209.25 C1050.205 208.92 1050.535 208.59 1050.875 208.25 C1052.62265452 208.15030159 1054.3745103 208.12031955 1056.125 208.125 C1057.07890625 208.12242187 1058.0328125 208.11984375 1059.015625 208.1171875 C1061.73963928 208.24371275 1064.22175009 208.63994619 1066.875 209.25 C1068.050625 207.9196875 1068.050625 207.9196875 1069.25 206.5625 C1069.69085937 206.06363281 1070.13171875 205.56476563 1070.5859375 205.05078125 C1074.90428213 199.01818467 1074.32862134 192.35964208 1073.875 185.25 C1073.40394889 182.75261698 1072.76361363 180.63814913 1071.875 178.25 C1072.71160156 178.17523438 1073.54820313 178.10046875 1074.41015625 178.0234375 C1099.63478715 175.17414364 1118.76305134 160.17814895 1134.65625 141.11328125 C1136.14869558 139.20263989 1136.14869558 139.20263989 1135.875 136.25 C1135.26914063 136.16363281 1134.66328125 136.07726562 1134.0390625 135.98828125 C1126.75415936 134.76665903 1119.22724073 132.60224073 1113.875 127.25 C1114.7721875 127.04246094 1115.669375 126.83492188 1116.59375 126.62109375 C1143.58946968 119.95582825 1165.18774575 105.42948903 1180.84375 82.1953125 C1182.10918837 80.17519445 1182.10918837 80.17519445 1181.875 77.25 C1171.975 77.25 1162.075 77.25 1151.875 77.25 C1157.815 73.785 1157.815 73.785 1163.875 70.25 C1167.73822166 67.46014708 1171.30569942 64.40505743 1174.875 61.25 C1175.82826172 60.42242187 1175.82826172 60.42242187 1176.80078125 59.578125 C1188.94000594 48.30399448 1198.74569791 30.40272109 1201.875 14.25 C1201.55657039 11.97361383 1201.55657039 11.97361383 1200.875 10.25 C1194.18612179 10.82711679 1188.32118808 13.09938081 1182.0625 15.4375 C1179.81432241 16.26053729 1177.56562099 17.08214505 1175.31640625 17.90234375 C1174.21699707 18.30437012 1173.11758789 18.70639648 1171.98486328 19.12060547 C1158.79660078 23.9101252 1145.51250829 27.94862431 1131.875 31.25 C1131.0612793 31.44948242 1130.24755859 31.64896484 1129.40917969 31.85449219 C1103.53823972 38.10336567 1077.00908787 41.79160839 1050.5625 44.5625 C1049.79146942 44.64372101 1049.02043884 44.72494202 1048.2260437 44.80862427 C1032.14605286 46.48044636 1016.14277865 47.39766364 999.97386169 47.40821838 C998.45363634 47.41280054 996.93341221 47.41780289 995.41318947 47.42318195 C991.29002664 47.43658452 987.16687191 47.44412855 983.04369318 47.45060861 C978.5770014 47.45869253 974.11032606 47.47236212 969.64364624 47.48532104 C961.9227952 47.50697172 954.2019424 47.52515726 946.48107719 47.54092598 C935.31828004 47.56372944 924.15550119 47.59185714 912.99271966 47.62124526 C894.87772291 47.66879355 876.76271864 47.7120919 858.64770508 47.75268555 C841.06045955 47.7921057 823.47322068 47.83354733 805.88598633 47.87768555 C804.2573057 47.88177196 804.2573057 47.88177196 802.59572243 47.88594092 C797.14813712 47.89962147 791.70055192 47.91334153 786.25296676 47.92708123 C741.12699177 48.04084526 696.00100233 48.14769855 650.875 48.25 C650.57553467 47.62383789 650.27606934 46.99767578 649.9675293 46.35253906 C648.79006265 44.08654068 647.53905265 42.74562859 645.6875 41 C642.35091933 37.76834325 639.28758922 34.37045116 636.2578125 30.8515625 C635.48929517 29.96147181 634.70652881 29.08152881 633.875 28.25 C631.98483103 28.13374128 630.09030191 28.08808411 628.19665527 28.06918335 C626.96299225 28.05480225 625.72932922 28.04042114 624.45828247 28.02560425 C623.07830939 28.01478807 621.69833496 28.00414325 620.31835938 27.99365234 C618.87470188 27.97921034 617.43104751 27.96445279 615.98739624 27.94940186 C602.78164511 27.81888479 589.57503615 27.75321152 576.36876678 27.70155907 C566.60757284 27.66268672 556.84753642 27.59442103 547.08685064 27.48701131 C540.22392044 27.41404324 533.36130576 27.3757056 526.49800348 27.36253321 C522.39971785 27.35368242 518.30286125 27.32955425 514.20500183 27.26786423 C510.3434332 27.21039687 506.4840219 27.19600438 502.62208939 27.21373749 C501.20994533 27.2128627 499.79770958 27.19673988 498.385952 27.16369247 C490.30231635 26.94857937 490.30231635 26.94857937 483.11329651 30.16728592 C480.82712414 32.42115593 478.84455276 34.71820051 476.875 37.25 C475.56867451 38.73462251 474.2571372 40.21469725 472.9375 41.6875 C472.39222656 42.32558594 471.84695313 42.96367188 471.28515625 43.62109375 C468.17406214 47.21479526 468.17406214 47.21479526 465.7551077 47.49954766 C464.42618176 47.49922161 464.42618176 47.49922161 463.07040882 47.49888897 C461.53908415 47.50578716 461.53908415 47.50578716 459.97682363 47.51282471 C458.84661737 47.50768115 457.71641111 47.50253759 456.55195618 47.49723816 C454.76063767 47.50085978 454.76063767 47.50085978 452.93313092 47.50455457 C449.60710475 47.50923158 446.28130729 47.50488171 442.95530188 47.49679029 C439.37135584 47.49022944 435.7874237 47.49515868 432.20347595 47.49867249 C425.17215545 47.50372534 418.14088183 47.49805663 411.10956714 47.48882218 C402.90681499 47.478438 394.70407299 47.4785085 386.5013155 47.47899476 C371.84176882 47.47949608 357.18224389 47.47032141 342.52270508 47.45581055 C328.33682864 47.44177597 314.15097137 47.43463744 299.96508789 47.43530273 C298.65915643 47.43536267 298.65915643 47.43536267 297.32684252 47.43542381 C296.4576566 47.43546417 295.58847067 47.43550452 294.69294578 47.4355461 C278.51444209 47.43623955 262.33594649 47.43031829 246.15744543 47.42139288 C240.45951467 47.41839605 234.76158541 47.41731559 229.06365395 47.41686058 C222.08917855 47.41617191 215.11471674 47.41161929 208.14024708 47.40252777 C204.59113718 47.39796842 201.04204439 47.39484196 197.49293137 47.39612198 C177.17505743 47.39874179 156.90706074 47.04790167 136.6484375 45.3828125 C135.64318024 45.30255829 134.63792297 45.22230408 133.60220337 45.13961792 C131.52075884 44.97204357 129.43948605 44.8023212 127.35839844 44.63037109 C124.24472242 44.37456642 121.13027634 44.13032549 118.015625 43.88671875 C76.47967448 40.54996443 35.11385941 32.39605279 -4.125 18.25 C-7.31928267 17.10999799 -10.51495171 15.9742718 -13.71337891 14.84594727 C-15.72276278 14.13536556 -17.72917708 13.41630747 -19.73193359 12.68725586 C-20.6286377 12.36764893 -21.5253418 12.04804199 -22.44921875 11.71875 C-23.23385498 11.43451172 -24.01849121 11.15027344 -24.8269043 10.85742188 C-27.3442536 10.19204792 -29.53243294 10.14220334 -32.125 10.25 Z " fill="#CACACB" transform="translate(56.125,13.75)"/>
<path d="M0 0 C-7.19358284 16.78502662 -35.80770397 29.44699738 -51.67382812 36.12548828 C-64.16766408 41.11369891 -76.93067371 44.86094703 -90 48 C-74.61338055 48.24540063 -59.46637061 47.85615247 -44.140625 46.4375 C-40.41138809 46.09482784 -36.74899276 45.89798659 -33 46 C-38.5293291 59.11406326 -59.57836659 66.22515768 -71.875 71.25 C-84.24329304 76.15795756 -97.0307152 79.16374434 -110 82 C-96.90087298 86.38767507 -83.71857735 87.19886765 -70 88 C-70 88.66 -70 89.32 -70 90 C-87.23092073 99.52768558 -104.63702382 101.96947746 -124 103 C-123.46890625 103.43570313 -122.9378125 103.87140625 -122.390625 104.3203125 C-112.37880607 112.76093356 -112.37880607 112.76093356 -111.73046875 118.3046875 C-111.62596451 124.25192901 -111.62596451 124.25192901 -113 127 C-116 126 -116 126 -117.9375 123.5625 C-120.40140189 120.50128856 -122.26203147 119.21141657 -126.18359375 118.734375 C-130.51304167 118.7643885 -134.12450777 118.82003562 -138 121 C-139.64859007 124.29718014 -139.51419964 127.39894655 -138.38900757 130.9024353 C-137.48512229 133.12358967 -136.51309217 135.30150403 -135.51171875 137.48046875 C-135.14158157 138.30960785 -134.7714444 139.13874695 -134.39009094 139.99301147 C-133.16598841 142.72916252 -131.92663143 145.45812661 -130.6875 148.1875 C-129.82628078 150.10680554 -128.96627335 152.02665525 -128.10742188 153.94702148 C-126.31520323 157.95156637 -124.51774117 161.9536934 -122.71630859 165.95410156 C-118.43479013 175.47126287 -114.21739288 185.01679593 -110 194.5625 C-109.60293854 195.46012054 -109.20587708 196.35774109 -108.79678345 197.28256226 C-88.85616462 242.36870181 -88.85616462 242.36870181 -88.75 251.375 C-88.72421875 252.68210937 -88.6984375 253.98921875 -88.671875 255.3359375 C-89.12228778 260.3655469 -90.71638086 262.81771921 -94.375 266.1875 C-100.80837234 270.62959042 -106.73688366 270.33418179 -114.3125 270.3125 C-115.93768555 270.33666992 -115.93768555 270.33666992 -117.59570312 270.36132812 C-132.33003432 270.36996996 -146.47835929 266.52952208 -160.6875 263 C-163.48269896 262.31097651 -166.27846077 261.62425115 -169.07421875 260.9375 C-170.07640945 260.69060425 -170.07640945 260.69060425 -171.09884644 260.4387207 C-177.384567 258.89446428 -183.68807927 257.43357098 -190 256 C-189.80035645 255.27973633 -189.60071289 254.55947266 -189.39501953 253.81738281 C-188.87707534 251.93791381 -188.36921115 250.055659 -187.8671875 248.171875 C-187.32606518 246.19263481 -186.753104 244.22149911 -186.1328125 242.265625 C-181.9047786 228.01111071 -183.42995597 213.21642532 -187 199 C-191.49964579 202.80677561 -191.49964579 202.80677561 -195.87109375 206.7578125 C-208.54123 218.56351451 -223.50344908 227.56499164 -238.69189453 235.734375 C-240.14628819 236.53187624 -241.5793038 237.37102927 -242.97607422 238.265625 C-250.45531483 242.76743022 -258.40666685 240.69434763 -266.5078125 238.80078125 C-268.38256543 238.31367078 -270.25491251 237.81722563 -272.125 237.3125 C-274.23115266 236.76324907 -276.3379482 236.2164586 -278.4453125 235.671875 C-279.52329102 235.39279297 -280.60126953 235.11371094 -281.71191406 234.82617188 C-286.03990494 233.73871114 -290.38902018 232.76184996 -294.74414062 231.78979492 C-361.04972262 216.97843254 -361.04972262 216.97843254 -377.375 194.75 C-383.51315823 184.54099297 -385.50996651 171.54519238 -388.4375 160.0625 C-388.63420288 159.29542725 -388.83090576 158.52835449 -389.03356934 157.73803711 C-391.61964067 147.64853196 -394.08464598 137.54385746 -396.33007812 127.37231445 C-397.56812559 121.79199758 -398.94820015 116.26830946 -400.4375 110.75 C-404.42981519 95.95054339 -407.67543308 80.96055114 -411 66 C-418.59 66 -426.18 66 -434 66 C-435.42742838 60.35910892 -436.85270294 54.71776485 -438.27246094 49.07495117 C-438.75621454 47.15503376 -439.24123409 45.23543486 -439.72753906 43.31616211 C-440.42585051 40.55925701 -441.11961874 37.80124289 -441.8125 35.04296875 C-442.03123779 34.18350143 -442.24997559 33.32403412 -442.4753418 32.43852234 C-442.67554932 31.63791885 -442.87575684 30.83731537 -443.08203125 30.01245117 C-443.25968018 29.3085173 -443.4373291 28.60458344 -443.62036133 27.87931824 C-444 26 -444 26 -444 23 C-399.45 23 -354.9 23 -309 23 C-306.88195607 27.94210251 -305.05670984 32.68216221 -303.51953125 37.796875 C-303.30181564 38.51232483 -303.08410004 39.22777466 -302.85978699 39.96490479 C-302.40495068 41.46347084 -301.95211819 42.96264645 -301.5012207 44.46240234 C-300.80967245 46.75939176 -300.10934756 49.05358018 -299.40820312 51.34765625 C-298.9656198 52.8097367 -298.52354431 54.271971 -298.08203125 55.734375 C-297.76804131 56.76096222 -297.76804131 56.76096222 -297.44770813 57.80828857 C-296.59775035 60.6538961 -296 63.01108526 -296 66 C-301.94 66 -307.88 66 -314 66 C-313.55269531 67.39089844 -313.10539063 68.78179687 -312.64453125 70.21484375 C-309.15807212 81.09139601 -305.76537252 91.98344131 -302.59277344 102.95556641 C-301.5727431 106.4735788 -300.53517571 109.98642104 -299.5 113.5 C-299.08070214 114.92707539 -298.66143123 116.3541587 -298.2421875 117.78125 C-297.43932052 120.51174925 -296.63193307 123.24084059 -295.8203125 125.96875 C-293.92080772 132.36835572 -292.0555989 138.77464875 -290.26953125 145.20703125 C-289.96644043 146.29822266 -289.66334961 147.38941406 -289.35107422 148.51367188 C-288.75991885 150.64827673 -288.17151799 152.78364716 -287.58642578 154.91992188 C-285.86212587 161.15184833 -283.94918698 167.27982547 -281.82739258 173.38842773 C-280.8057029 176.6132771 -280.30560932 179.63829753 -280 183 C-278.783125 183.10054687 -277.56625 183.20109375 -276.3125 183.3046875 C-270.06903747 184.00245765 -264.08065658 185.58716195 -258 187.125 C-245.23060827 190.28952338 -232.40801505 193.10485117 -219.52734375 195.77783203 C-218.50497116 195.99067841 -218.50497116 195.99067841 -217.46194458 196.20782471 C-215.61163207 196.59236405 -213.76067128 196.97378025 -211.90966797 197.35498047 C-209 198 -209 198 -206 199 C-208.9370095 190.62482794 -211.87456504 182.24984746 -214.8125 173.875 C-215.1459675 172.92441397 -215.1459675 172.92441397 -215.48617172 171.95462418 C-223.56564514 148.92368347 -231.66057067 125.89821591 -239.76689148 102.87670898 C-240.83326857 99.84698881 -241.89839009 96.81682949 -242.96337891 93.78662109 C-244.33452185 89.88631137 -245.71261758 85.9885484 -247.09521484 82.09228516 C-247.74448827 80.25554168 -248.39374063 78.41879075 -249.04296875 76.58203125 C-249.34350662 75.73960373 -249.64404449 74.89717621 -249.95368958 74.02922058 C-252 68.22601954 -252 68.22601954 -252 66 C-258.27 66 -264.54 66 -271 66 C-272.9544936 60.78801707 -274.87634053 55.58132794 -276.69921875 50.32421875 C-277.05908623 49.28646049 -277.05908623 49.28646049 -277.42622375 48.22773743 C-277.92680804 46.7818514 -278.42673637 45.33573811 -278.92602539 43.8894043 C-279.43701443 42.41181207 -279.9500626 40.93493045 -280.46508789 39.45874023 C-281.21427659 37.31125568 -281.95742839 35.16176835 -282.69921875 33.01171875 C-282.93041916 32.3523381 -283.16161957 31.69295746 -283.39982605 31.01359558 C-284.36414802 28.19858171 -285 26.00072637 -285 23 C-283.75128789 22.99503478 -283.75128789 22.99503478 -282.47734928 22.98996925 C-262.10623181 22.90831342 -241.73518526 22.8160869 -221.36416721 22.71247292 C-211.51240613 22.66261145 -201.66065229 22.6161685 -191.80883789 22.578125 C-183.20974331 22.54490991 -174.61070971 22.50492262 -166.01168293 22.45720994 C-161.46971689 22.43223406 -156.92778976 22.4103723 -152.38577461 22.39665604 C-132.8313883 22.33527617 -113.47257782 22.01019682 -94 20 C-91.86637012 19.78822125 -89.73271305 19.57671628 -87.59902954 19.36547852 C-59.67250862 16.58268249 -31.16174015 10.96286092 -4.99609375 0.6640625 C-3 0 -3 0 0 0 Z " fill="#FDFDFE" transform="translate(1191,70)"/>
<path d="M0 0 C3.59644616 0.58450846 6.85712624 1.63019672 10.26123047 2.91625977 C37.61110024 13.19931601 67.10120173 17.7291885 96.04052734 20.69580078 C98.82660367 20.98217688 101.61065122 21.28293896 104.39453125 21.58984375 C117.32401304 23.0005817 130.17463311 24.14610964 143.19319153 24.15821838 C144.34769371 24.16315636 145.5021959 24.16809434 146.69168299 24.17318195 C150.52077237 24.18841514 154.34984518 24.1968787 158.17895508 24.20532227 C160.93946183 24.21437928 163.69996266 24.22488079 166.46046448 24.23532104 C172.38341911 24.2569722 178.30637603 24.27515756 184.22934914 24.29092598 C192.79276107 24.313729 201.35614916 24.34185677 209.91954073 24.37124526 C223.81622295 24.41879408 237.71291499 24.46209229 251.60961914 24.50268555 C265.10148887 24.54210543 278.59334992 24.58354699 292.08520508 24.62768555 C292.91814843 24.63040982 293.75109179 24.63313409 294.60927586 24.63594092 C298.78829767 24.64962146 302.96731935 24.66334153 307.14634097 24.67708123 C341.76420926 24.79084611 376.382096 24.8976992 411 25 C409.42200863 37.66364419 407.50250976 50.25770125 405.46826172 62.85546875 C404.39381547 69.51036445 403.35542023 76.16750252 402.39453125 82.83984375 C402 85 402 85 401 87 C373.61 87 346.22 87 318 87 C319 78 319 78 322 68 C299.56 68 277.12 68 254 68 C253.67 70.31 253.34 72.62 253 75 C252.47640834 77.21788055 251.91146267 79.42627626 251.3125 81.625 C251.14387451 82.24600586 250.97524902 82.86701172 250.80151367 83.50683594 C244.57346279 106.27961164 244.57346279 106.27961164 242 114 C242.66752792 113.93655899 243.33505585 113.87311798 244.02281189 113.80775452 C253.04877893 112.99840309 262.07683313 112.60032825 271.12890625 112.24609375 C272.77018195 112.18038062 274.41145281 112.11454661 276.05271912 112.04859924 C279.47917036 111.91156973 282.90569282 111.77652588 286.33227539 111.64282227 C290.66628103 111.47348012 295.00003187 111.2983853 299.33374119 111.12164211 C302.72197666 110.98426718 306.11034684 110.85046621 309.49876213 110.7176075 C311.09356251 110.65459375 312.68831874 110.5904496 314.28302193 110.52502251 C325.8607768 110.05235831 337.41295727 109.92815117 349 110 C344.63570873 117.68901729 344.63570873 117.68901729 342.22265625 120.98828125 C341.71541016 121.68590576 341.20816406 122.38353027 340.68554688 123.10229492 C340.14994141 123.8316626 339.61433594 124.56103027 339.0625 125.3125 C337.90745724 126.89836842 336.75251228 128.48430809 335.59765625 130.0703125 C335.0061377 130.88016602 334.41461914 131.69001953 333.80517578 132.52441406 C330.85613396 136.56867753 327.92876512 140.62854224 325 144.6875 C324.472854 145.41686768 323.94570801 146.14623535 323.40258789 146.89770508 C322.64643188 147.94414185 322.64643188 147.94414185 321.875 149.01171875 C321.43929688 149.61459717 321.00359375 150.21747559 320.5546875 150.83862305 C318.98801061 152.85100094 318.98801061 152.85100094 318.24771118 154.76068115 C317.06080152 157.09917422 316.09317127 158.39211494 314 160 C308.92379716 161.19339902 303.83569386 161.21368824 298.6484375 161.3046875 C297.1091586 161.35653293 295.56998034 161.41144794 294.03091431 161.4692688 C289.9715181 161.61377818 285.91206999 161.71783577 281.85125732 161.81304932 C277.78810465 161.91470074 273.72620377 162.05201054 269.6640625 162.1875 C264.22482839 162.36624603 258.78551305 162.53456067 253.34547806 162.68701553 C243.55150502 162.96282156 233.78066206 163.41844712 224 164 C220.04 174.89 216.08 185.78 212 197 C223.19734677 195.68266509 234.38338635 194.33122135 245.5625 192.875 C246.97850373 192.69131452 248.39451933 192.50772054 249.81054688 192.32421875 C253.20716761 191.88385828 256.60363004 191.442291 260 191 C259.33711616 196.51487973 257.54915795 201.38530493 255.62109375 206.5546875 C255.28956802 207.45623566 254.9580423 208.35778381 254.61647034 209.28665161 C253.56176917 212.15129084 252.49975039 215.01315267 251.4375 217.875 C250.71891561 219.82273764 250.00081129 221.77065247 249.28320312 223.71875 C247.52768905 228.4812368 245.76560943 233.24124713 244 238 C239.41560241 238.88749369 236.55169538 239.37014577 232.43359375 237.04296875 C231.625271 236.5948584 230.81694824 236.14674805 229.98413086 235.68505859 C229.14374268 235.19086426 228.30335449 234.69666992 227.4375 234.1875 C226.11794312 233.43460693 226.11794312 233.43460693 224.77172852 232.66650391 C210.49988886 224.38886293 196.96938436 214.48767093 185.55859375 202.53125 C184.05986609 200.90167459 184.05986609 200.90167459 182 200 C180.31020535 208.50189963 179.68955273 216.65342928 179.75 225.3125 C179.74226562 226.43978516 179.73453125 227.56707031 179.7265625 228.72851562 C179.74031437 234.57649989 180.1022408 239.47109523 182 245 C182.125 247.9375 182.125 247.9375 182 250 C175.31726674 252.37089045 168.57877428 254.15996056 161.6875 255.8125 C153.20495352 257.88782248 144.81368136 260.13596103 136.4753418 262.73168945 C131.94221495 264.1384521 127.39204128 265.44645642 122.81263733 266.69268799 C112.82438569 269.4171962 102.9976096 272.50774606 93.1875 275.8125 C92.40862427 276.07356537 91.62974854 276.33463074 90.82727051 276.60360718 C74.54481903 282.06624526 58.3668629 287.72588448 42.79199219 295.00708008 C41.21919924 295.72755987 39.61189277 296.37185156 38 297 C37.34 296.67 36.68 296.34 36 296 C36.4626123 295.04971924 36.92522461 294.09943848 37.40185547 293.12036133 C39.16736664 289.49314948 40.93149528 285.86526632 42.69546509 282.23730469 C43.8711147 279.82048712 45.04819532 277.40437004 46.2253418 274.98828125 C49.60276903 268.04891832 52.97236209 261.10910185 56.21484375 254.10546875 C56.66424316 253.13826904 57.11364258 252.17106934 57.57666016 251.17456055 C58.37845701 249.43934038 59.17164267 247.70010528 59.95458984 245.95629883 C60.30602051 245.19728271 60.65745117 244.4382666 61.01953125 243.65625 C61.30932861 243.01494141 61.59912598 242.37363281 61.89770508 241.71289062 C64.71688441 237.33207951 68.59008192 236.39660061 73.453125 235.22265625 C75.38668715 234.68335667 77.32021816 234.14393066 79.25244141 233.59985352 C80.57010217 233.24539601 81.89505755 232.91689583 83.22607422 232.61645508 C88.68940885 231.35930212 93.97157189 229.95512512 97.26504517 225.15701294 C99.75892755 220.28699579 101.37846196 215.11305931 103.0302124 209.91055298 C104.36644248 205.90022284 105.96509946 202.01731361 107.57595825 198.11076355 C109.24595946 194.05873545 110.85072768 189.98196858 112.45874023 185.9050293 C113.28736677 183.81955098 114.1264848 181.73821473 114.9753418 179.66088867 C116.22265698 176.60288564 117.43291512 173.53237863 118.63671875 170.45703125 C119.0208342 169.53815628 119.40494965 168.61928131 119.80070496 167.67256165 C121.9489348 162.05304311 122.30108966 158.64764709 119.96052551 153.05180359 C119.64355209 152.3747084 119.32657867 151.69761322 119 151 C118.53980469 149.86175781 118.07960938 148.72351563 117.60546875 147.55078125 C117.13753906 146.48214844 116.66960937 145.41351563 116.1875 144.3125 C115.41019531 142.52199219 115.41019531 142.52199219 114.6171875 140.6953125 C114.07856987 139.46334707 113.53950481 138.23157717 113 137 C111.93304876 134.56437245 110.87140253 132.12666353 109.8125 129.6875 C109.34457031 128.61886719 108.87664062 127.55023438 108.39453125 126.44921875 C106.74502986 122.36935956 105.39162157 118.1748647 104 114 C110.6 114 117.2 114 124 114 C124.66 110.04 125.32 106.08 126 102 C124.92363281 102.02320313 123.84726563 102.04640625 122.73828125 102.0703125 C104.78327005 102.34085615 85.34406256 100.22937504 70 90 C70 89.34 70 88.68 70 88 C70.82612793 87.92483154 71.65225586 87.84966309 72.50341797 87.7722168 C75.61671823 87.48398053 78.72896787 87.18649609 81.84082031 86.88305664 C83.83072211 86.69175667 85.82160953 86.51079884 87.8125 86.33007812 C95.19211367 85.60329799 102.01104649 84.51960946 109 82 C107.63681641 81.63648438 107.63681641 81.63648438 106.24609375 81.265625 C104.28950315 80.74386751 102.33298873 80.22180327 100.37792969 79.69433594 C97.03685662 78.79546856 93.69798907 77.92795479 90.33203125 77.125 C70.2344017 72.21565538 46.01682567 62.83546445 32 47 C32 46.34 32 45.68 32 45 C32.65033203 45.09087891 33.30066406 45.18175781 33.97070312 45.27539062 C53.10909749 47.86884921 71.72932337 48.3656497 91 48 C89.72769531 47.731875 88.45539063 47.46375 87.14453125 47.1875 C55.1316898 40.175661 22.88566984 26.14312423 0 2 C0 1.34 0 0.68 0 0 Z " fill="#FDFDFE" transform="translate(95,68)"/>
<path d="M0 0 C2.01870757 -0.01741117 4.03786298 -0.00139935 6.05621338 0.04037476 C7.15895096 0.0394986 8.26168854 0.03862244 9.39784241 0.03771973 C13.045427 0.04190232 16.69117633 0.08859067 20.33843994 0.1355896 C22.86620072 0.14677923 25.3939745 0.15532051 27.92175293 0.16131592 C33.89666164 0.18188954 39.87078168 0.22918255 45.84537435 0.28941286 C52.64814637 0.35650185 59.45095008 0.38947275 66.25397062 0.41958547 C80.24603376 0.48228361 94.23751325 0.58780333 108.22906494 0.7215271 C108.61585419 1.41502762 109.00264343 2.10852814 109.40115356 2.82304382 C111.19408699 6.03600708 112.98891169 9.24791022 114.78375244 12.45980835 C115.39178711 13.55007324 115.99982178 14.64033813 116.62628174 15.76364136 C120.78260498 23.19743591 125.03244334 30.57023836 129.35406494 37.9090271 C134.34082334 46.40640386 139.14929168 54.97868912 143.83331299 63.64633179 C148.15471375 71.63026503 152.64438673 79.51023251 157.16656494 87.38168335 C160.3590447 92.93877295 163.51588953 98.51565399 166.66656494 104.0965271 C167.20877686 105.0565564 167.75098877 106.01658569 168.30963135 107.00570679 C170.47742549 110.84484385 172.64419914 114.68455534 174.81011963 118.52474976 C182.08494944 131.42227513 189.39998533 144.29594518 196.76153564 157.14413452 C198.58798229 160.33437099 200.40926924 163.52749347 202.22906494 166.7215271 C202.74984619 167.6280603 203.27062744 168.53459351 203.80718994 169.46859741 C204.26609619 170.27651733 204.72500244 171.08443726 205.19781494 171.9168396 C205.59420166 172.61051636 205.99058838 173.30419312 206.39898682 174.01889038 C207.22906494 175.7215271 207.22906494 175.7215271 207.22906494 177.7215271 C208.38922119 177.70992554 209.54937744 177.69832397 210.74468994 177.68637085 C219.63545485 177.62538382 228.37550592 177.79940232 237.22906494 178.7215271 C240.68007162 187.00188589 243.67829339 195.4344241 246.65777588 203.89242554 C247.48758667 206.24569394 248.32301903 208.59691894 249.15875244 210.9480896 C249.68773676 212.44536589 250.21639485 213.94275749 250.74468994 215.4402771 C250.99462708 216.14229248 251.24456421 216.84430786 251.5020752 217.56759644 C253.22906494 222.49227899 253.22906494 222.49227899 253.22906494 224.7215271 C249.66628405 224.58210029 246.10392234 224.43385632 242.54156494 224.2840271 C241.5341626 224.24471069 240.52676025 224.20539429 239.48883057 224.16488647 C238.51236572 224.12299194 237.53590088 224.08109741 236.52984619 224.03793335 C235.18660278 223.98294678 235.18660278 223.98294678 233.81622314 223.92684937 C231.22906494 223.7215271 231.22906494 223.7215271 229.11997986 223.24227905 C225.21720437 222.53925665 221.34409398 222.37571586 217.38726807 222.18417358 C215.56364601 222.0892564 213.74003824 221.99406446 211.91644287 221.89863586 C210.47300758 221.82463719 210.47300758 221.82463719 209.00041199 221.7491436 C202.82650402 221.42595775 196.65480964 221.06239886 190.4826889 220.70698452 C185.05958708 220.39704051 179.63638016 220.10091349 174.21099854 219.83358765 C168.95751367 219.57394125 163.70731848 219.27703432 158.45732117 218.95469856 C156.45820238 218.83873217 154.45824476 218.73638822 152.4577179 218.64797783 C149.65874858 218.52230029 146.86648609 218.34910681 144.07086182 218.16464233 C143.24577621 218.13887115 142.42069061 218.11309998 141.57060242 218.08654785 C138.10629104 217.81478844 136.02781269 217.6044726 133.63430595 214.95866108 C132.34521298 212.92463005 131.26010953 210.89598963 130.22906494 208.7215271 C129.6543042 207.67198853 129.07954346 206.62244995 128.48736572 205.54110718 C127.97157959 204.53459106 127.45579346 203.52807495 126.92437744 202.49105835 C126.34043213 201.35732788 125.75648682 200.22359741 125.15484619 199.05551147 C124.56058838 197.89342163 123.96633057 196.73133179 123.35406494 195.5340271 C122.1702269 193.22749429 120.98533271 190.92150325 119.79937744 188.61605835 C119.21833252 187.48506714 118.6372876 186.35407593 118.03863525 185.18881226 C116.78654884 182.78971199 115.52121646 180.40593089 114.22418213 178.03158569 C113.89924774 177.43617477 113.57431335 176.84076385 113.23953247 176.22731018 C112.3336636 174.57432148 111.42191424 172.92455938 110.50982666 171.2749939 C109.22906494 168.7215271 109.22906494 168.7215271 109.22906494 166.7215271 C68.63906494 166.7215271 28.04906494 166.7215271 -13.77093506 166.7215271 C-14.43093506 168.3715271 -15.09093506 170.0215271 -15.77093506 171.7215271 C-16.54543059 173.25523425 -17.34611023 174.77593555 -18.16937256 176.2840271 C-18.64253906 177.15390259 -19.11570557 178.02377808 -19.60321045 178.92001343 C-21.2001999 181.82006943 -22.80781244 184.71409023 -24.41546631 187.60824585 C-26.6493819 191.63265028 -28.78065295 195.68986897 -30.84515381 199.80355835 C-31.84093743 201.71387629 -32.83702007 203.6240384 -33.83343506 205.5340271 C-34.26639893 206.44088257 -34.69936279 207.34773804 -35.14544678 208.28207397 C-38.32297677 214.22512537 -38.32297677 214.22512537 -41.9821167 215.47958374 C-44.9366375 215.78373793 -47.800745 215.76732346 -50.77093506 215.7215271 C-52.73837869 215.80858213 -54.70583411 215.89656136 -56.6723938 216.00170898 C-58.8868606 216.11952419 -61.10160032 216.21964714 -63.31707764 216.3164978 C-94.81012779 217.73225131 -125.90056377 221.23825502 -157.00408936 226.32601929 C-159.77093506 226.7215271 -159.77093506 226.7215271 -162.77093506 226.7215271 C-160.35084915 217.16419477 -157.23076119 207.86904283 -154.08343506 198.5340271 C-153.56687693 196.99440817 -153.05059886 195.45469525 -152.53460693 193.91488647 C-151.28327129 190.1826767 -150.02816802 186.45175421 -148.77093506 182.7215271 C-144.91768449 182.21429561 -141.06320803 181.71704511 -137.20843506 181.2215271 C-136.1223999 181.07844116 -135.03636475 180.93535522 -133.91741943 180.78793335 C-128.49112368 180.09521474 -123.24184875 179.53314557 -117.77093506 179.7215271 C-117.53890381 179.04992554 -117.30687256 178.37832397 -117.06781006 177.68637085 C-115.42605638 173.93308459 -113.28122249 170.69070343 -111.02093506 167.2840271 C-110.02138711 165.75854206 -109.02273266 164.23247131 -108.02484131 162.7059021 C-107.49519775 161.89701538 -106.9655542 161.08812866 -106.41986084 160.25473022 C-103.56539717 155.86948962 -100.76297677 151.45129786 -97.95843506 147.0340271 C-97.37030029 146.10856079 -96.78216553 145.18309448 -96.1762085 144.22958374 C-94.97368399 142.33722253 -93.77137371 140.44472516 -92.5692749 138.55209351 C-89.63919736 133.94018486 -86.70488928 129.33097008 -83.77093506 124.7215271 C-82.60424732 122.88820718 -81.43758067 121.05487383 -80.27093506 119.2215271 C-73.27093506 108.2215271 -73.27093506 108.2215271 -71.52044678 105.47079468 C-70.35536558 103.63992956 -69.19032642 101.80903769 -68.02532959 99.9781189 C-65.08475185 95.35679997 -62.14341413 90.7359679 -59.20062256 86.11605835 C-53.70934192 77.49378436 -48.22485227 68.86749379 -42.77093506 60.2215271 C-36.73985987 50.66060544 -30.67046184 41.12428231 -24.59710693 31.59017944 C-22.70015596 28.61034335 -20.80558058 25.62900783 -18.91156006 22.64730835 C-18.28104736 21.65513306 -17.65053467 20.66295776 -17.00091553 19.64071655 C-15.7963173 17.74503597 -14.59218849 15.84905699 -13.38861084 13.95272827 C-12.56852539 12.66265869 -12.56852539 12.66265869 -11.73187256 11.3465271 C-11.25540283 10.59629272 -10.77893311 9.84605835 -10.2880249 9.0730896 C-9.78738525 8.29707397 -9.28674561 7.52105835 -8.77093506 6.7215271 C-8.30295502 5.69707489 -7.83497498 4.67262268 -7.35281372 3.61712646 C-4.4709658 0.38510897 -4.07580478 0.27760489 0 0 Z " fill="#FEFEFE" transform="translate(560.7709350585938,70.27847290039063)"/>
<path d="M0 0 C2.30372834 1.11039706 4.1896866 2.42671284 6.203125 4.00390625 C6.90953125 4.55175781 7.6159375 5.09960938 8.34375 5.6640625 C8.87484375 6.08558594 9.4059375 6.50710938 9.953125 6.94140625 C8.47876535 10.17365626 6.58491212 13.055919 4.62768555 16.01342773 C-11.31595294 40.43358265 -19.41864294 70.57914579 -13.96289062 99.65185547 C-13.5763587 101.48878945 -13.14166432 103.31540812 -12.703125 105.140625 C-12.046875 107.94140625 -12.046875 107.94140625 -12.046875 110.94140625 C-18.80983854 108.86073292 -25.18566113 106.20890889 -31.609375 103.25390625 C-32.52267578 102.83818359 -33.43597656 102.42246094 -34.37695312 101.99414062 C-36.60213252 100.98057723 -38.82535281 99.96295409 -41.046875 98.94140625 C-40.39810359 113.25022097 -39.266621 125.93376437 -33.046875 138.94140625 C-32.593125 139.91851563 -32.139375 140.895625 -31.671875 141.90234375 C-21.18619871 162.69496321 -3.06091431 178.22140546 15.953125 190.94140625 C16.60861328 191.38822754 17.26410156 191.83504883 17.93945312 192.29541016 C44.31577843 210.17044292 75.03507832 221.07929614 105.953125 227.94140625 C107.64855402 228.33413275 109.34387131 228.72734194 111.0390625 229.12109375 C121.61699785 231.52061936 132.15218963 233.00629342 142.953125 233.94140625 C144.15839844 234.05355469 145.36367188 234.16570312 146.60546875 234.28125 C170.72067179 236.22645422 195.10003706 234.88892432 218.953125 230.94140625 C217.63394052 235.21066571 215.99239112 239.04319421 213.9140625 242.99609375 C213.33398438 244.1046875 212.75390625 245.21328125 212.15625 246.35546875 C211.55296875 247.49757813 210.9496875 248.6396875 210.328125 249.81640625 C209.71710938 250.98171875 209.10609375 252.14703125 208.4765625 253.34765625 C206.97271998 256.21435606 205.46479482 259.07882846 203.953125 261.94140625 C209.81166404 260.25350002 215.61087826 258.41225088 221.38671875 256.4609375 C222.36144638 256.13209061 222.36144638 256.13209061 223.35586548 255.79660034 C226.05785721 254.88377703 228.75919371 253.96910424 231.45874023 253.04907227 C233.45423187 252.36984171 235.45155013 251.69623366 237.44921875 251.0234375 C238.62669678 250.62358643 239.8041748 250.22373535 241.01733398 249.81176758 C243.953125 248.94140625 243.953125 248.94140625 246.953125 248.94140625 C247.64535156 250.57722656 247.64535156 250.57722656 248.3515625 252.24609375 C254.76037241 267.15659056 262.14757372 281.33829365 271.45703125 294.65625 C272.953125 296.94140625 272.953125 296.94140625 273.953125 299.94140625 C262.14206035 299.59955199 250.58752141 298.18201052 238.8996582 296.48925781 C231.43869702 295.40213631 231.43869702 295.40213631 223.95385742 294.50073242 C212.91437044 293.31956213 202.13656539 291.36826129 191.265625 289.12890625 C189.48726498 288.76688508 187.70886287 288.40507059 185.93041992 288.04345703 C143.56533307 279.395349 102.57009608 267.40498173 62.953125 249.94140625 C62.06431641 249.5542041 61.17550781 249.16700195 60.25976562 248.76806641 C12.68633619 227.87737015 -38.51690521 192.75110942 -58.32421875 142.79736328 C-67.79124092 118.48374755 -67.92316789 91.09018326 -57.828125 66.87109375 C-46.69874711 41.69212958 -28.21620682 21.16345525 -7.046875 3.94140625 C-5.73396484 2.75611328 -5.73396484 2.75611328 -4.39453125 1.546875 C-2.046875 -0.05859375 -2.046875 -0.05859375 0 0 Z " fill="#FCFDFD" transform="translate(302.046875,411.05859375)"/>
<path d="M0 0 C27.06181587 14.57794248 51.14092187 48.35131192 59.84765625 77.34765625 C67.96486921 106.0779477 62.80717687 133.22084069 48.74511719 159.14135742 C43.54247195 168.34039944 36.89532648 176.36149915 29.74609375 184.10546875 C27.79501655 186.22901686 25.92531718 188.40081931 24.0625 190.6015625 C20.54636158 194.61091491 16.72912491 198.01710988 12.625 201.4140625 C12.07166992 201.87973633 11.51833984 202.34541016 10.94824219 202.82519531 C1.57675432 210.70274909 -7.95658387 217.97862012 -18.375 224.4140625 C-19.2093457 224.93049316 -20.04369141 225.44692383 -20.90332031 225.97900391 C-60.39860178 250.19194301 -105.03000751 268.58525413 -150.23876953 278.91699219 C-152.28027511 279.39202137 -154.31029007 279.89834876 -156.33984375 280.421875 C-176.97852355 285.7439305 -197.76165918 289.63139522 -218.81713867 292.86694336 C-221.12540335 293.22190261 -223.4329166 293.5817969 -225.73950195 293.94750977 C-233.24693533 295.13111666 -240.76123849 296.1179758 -248.3125 296.9765625 C-249.43897949 297.10587158 -250.56545898 297.23518066 -251.72607422 297.3684082 C-259.6003572 298.25549947 -267.46014626 298.99673385 -275.375 299.4140625 C-273.9284603 295.34287345 -271.92696629 292.10394705 -269.5 288.5390625 C-265.24808146 282.11988237 -261.61357042 275.42953579 -258.0625 268.6015625 C-257.30767334 267.15257568 -257.30767334 267.15257568 -256.53759766 265.67431641 C-253.61700129 260.00171332 -250.88794241 254.27880658 -248.375 248.4140625 C-243.58629539 249.19049576 -239.1415979 250.77214758 -234.57421875 252.35546875 C-233.73784378 252.64260239 -232.90146881 252.92973602 -232.03974915 253.22557068 C-229.37962604 254.13957668 -226.72105419 255.05800426 -224.0625 255.9765625 C-222.25465798 256.5986 -220.44671635 257.22034808 -218.63867188 257.84179688 C-214.21628678 259.36253452 -209.79528724 260.88723837 -205.375 262.4140625 C-205.68203857 261.79998535 -205.98907715 261.1859082 -206.30541992 260.55322266 C-211.32861328 250.50683594 -216.35180664 240.46044922 -221.375 230.4140625 C-217.03526951 230.93870128 -212.71209712 231.50952935 -208.390625 232.16796875 C-181.9666498 235.9909329 -154.69769103 236.0048236 -128.375 231.4140625 C-126.73917969 231.13272461 -126.73917969 231.13272461 -125.0703125 230.84570312 C-112.65468857 228.67085744 -100.37149552 226.32486974 -88.375 222.4140625 C-87.51229492 222.14223145 -86.64958984 221.87040039 -85.76074219 221.59033203 C-72.22387444 217.32135988 -59.17509041 212.55109215 -46.375 206.4140625 C-45.3555127 205.93501465 -45.3555127 205.93501465 -44.31542969 205.44628906 C-14.87125199 191.57612405 11.81304571 171.68572782 28.625 143.4140625 C29.3675 142.16689453 29.3675 142.16689453 30.125 140.89453125 C37.44941426 127.45880885 39.26900924 113.48433814 39.625 98.4140625 C30.385 102.3740625 21.145 106.3340625 11.625 110.4140625 C10.45041954 106.89032113 10.87354538 105.19823458 11.546875 101.57421875 C12.69209973 94.61900293 12.92339355 87.88879194 12.875 80.8515625 C12.88273437 79.72298828 12.89046875 78.59441406 12.8984375 77.43164062 C12.88111688 69.90150036 12.109796 62.79228289 10.625 55.4140625 C10.37621094 54.16496094 10.12742187 52.91585937 9.87109375 51.62890625 C5.94000606 35.69565711 -1.48078564 21.44261426 -11.375 8.4140625 C-10.0461232 5.36353742 -8.72690496 3.53588928 -6.0625 1.5390625 C-5.48886719 1.08789062 -4.91523437 0.63671875 -4.32421875 0.171875 C-2.375 -0.5859375 -2.375 -0.5859375 0 0 Z " fill="#FCFDFD" transform="translate(981.375,411.5859375)"/>
<path d="M0 0 C1.18308852 17.53600096 -5.71618443 31.2895816 -16.828125 44.421875 C-47.21500162 78.95355982 -92.92560116 96.03737939 -135.10913086 111.02880859 C-163.34551294 121.06655674 -190.97328582 132.00143747 -218 145 C-219.02029297 145.48823242 -220.04058594 145.97646484 -221.09179688 146.47949219 C-254.31072251 162.45701602 -287.35999148 182.09900746 -313 209 C-314.33094599 210.33571641 -315.66380237 211.66953713 -317 213 C-316.94647851 191.37731763 -309.17757735 174.38186499 -295 158 C-294.18789063 157.05382812 -293.37578125 156.10765625 -292.5390625 155.1328125 C-274.79292086 134.88936015 -252.24298512 121.10097755 -229 108 C-228.30729004 107.60329102 -227.61458008 107.20658203 -226.90087891 106.79785156 C-196.68561139 89.52039658 -161.4748375 76.16089532 -128 66.6875 C-84.60823074 54.33479237 -35.23369082 34.44437856 -2.7578125 1.7421875 C-1 0 -1 0 0 0 Z " fill="#CA0000" transform="translate(969,321)"/>
<path d="M0 0 C2 0 2 0 4.125 2.0625 C4.57617188 2.5265625 5.02734375 2.990625 5.4921875 3.46875 C18.37990271 16.55679239 34.62629873 25.89634687 50.59472656 34.67626953 C52.7141404 35.84267857 54.82307201 37.02555458 56.9296875 38.21484375 C78.78199991 50.3950633 102.88582521 59.00202309 126.73046875 66.359375 C183.26490109 83.84995716 242.71002765 106.21944091 286 148 C287.40185547 149.30710937 287.40185547 149.30710937 288.83203125 150.640625 C304.29506692 165.43323535 316.88617143 184.98720542 318.16796875 206.8671875 C318.18389535 208.91216291 318.10563658 210.95769273 318 213 C314.56029691 210.2046217 311.40162877 207.48401416 308.5625 204.0625 C270.02724859 158.00817514 197.74130426 133.53672792 143.20275879 114.02218628 C72.38912352 88.67993926 72.38912352 88.67993926 43 67 C42.41750488 66.57541504 41.83500977 66.15083008 41.23486328 65.71337891 C22.76070971 52.12811106 7.4536447 36.48269713 1 14 C0.69449219 12.97712891 0.69449219 12.97712891 0.3828125 11.93359375 C-0.09772214 9.50640345 -0.09502742 7.22208401 -0.0625 4.75 C-0.05347656 3.85796875 -0.04445313 2.9659375 -0.03515625 2.046875 C-0.02355469 1.37140625 -0.01195312 0.6959375 0 0 Z " fill="#CA0000" transform="translate(312,321)"/>
<path d="M0 0 C5.3769044 2.6884522 8.91563776 6.57505364 13.125 10.8125 C14.40769775 12.10256958 14.40769775 12.10256958 15.71630859 13.41870117 C22.10682496 19.92783078 27.82745639 26.4840941 33 34 C34.12728516 35.60294922 34.12728516 35.60294922 35.27734375 37.23828125 C50.13516389 58.94480077 57.78018142 81.50913081 54.4375 107.875 C48.39657889 137.50427973 32.42165552 163.29356531 13 186 C12.23212158 186.90105469 12.23212158 186.90105469 11.44873047 187.8203125 C7.97875393 191.89142725 4.49438577 195.9498236 1 200 C-2.98112257 198.45536122 -5.28731249 195.71064574 -7.9375 192.5 C-8.64604126 191.64873535 -8.64604126 191.64873535 -9.36889648 190.78027344 C-34.40897947 160.24418397 -55.96913201 123.72494879 -53 83 C-50.20654829 60.18444772 -37.83556892 40.91069025 -23 24 C-23 28.14098154 -24.93008223 31.13102312 -26.75 34.75 C-39.02533341 59.93806586 -39.37341271 89.67549587 -30.38525391 115.97290039 C-22.98648261 136.7692051 -12.66455425 155.33671319 -1 174 C-0.67 116.58 -0.34 59.16 0 0 Z " fill="#CACACB" transform="translate(641,548)"/>
<path d="M0 0 C4.51482128 0.60322508 8.10813548 2.44111294 12.05078125 4.59765625 C13.03899117 5.12823891 13.03899117 5.12823891 14.04716492 5.66954041 C16.13895394 6.7944484 18.22573251 7.9283088 20.3125 9.0625 C21.73470419 9.82937322 23.15722701 10.59565586 24.58007812 11.36132812 C28.05711218 13.23406666 31.5296826 15.11484629 35 17 C35 21.05078776 32.96600146 23.28576075 30.75 26.5 C26.81019739 32.39894783 23.95399939 38.13774022 22 45 C21.71769531 45.91458984 21.71769531 45.91458984 21.4296875 46.84765625 C18.56064141 61.21896893 22.39340683 75.53437327 30.28125 87.66796875 C45.47174633 108.27871036 67.09654503 118.9541088 92 123 C97.19688141 123.37080344 102.35467671 123.37692137 107.5625 123.3125 C109.52219727 123.31733398 109.52219727 123.31733398 111.52148438 123.32226562 C123.40431462 123.25713801 134.51076945 122.08262589 145.625 117.75 C146.43694824 117.440625 147.24889648 117.13125 148.08544922 116.8125 C159.50373195 112.36281186 169.92365659 106.65262177 178.25 97.5 C179.1575 96.675 180.065 95.85 181 95 C184.72094035 95.31757066 187.74754672 96.66905639 191.08203125 98.28515625 C192.01337891 98.73310547 192.94472656 99.18105469 193.90429688 99.64257812 C194.86400391 100.11115234 195.82371094 100.57972656 196.8125 101.0625 C197.79154297 101.53494141 198.77058594 102.00738281 199.77929688 102.49414062 C202.18870167 103.65770684 204.59544007 104.82646296 207 106 C207 109 207 109 205.15625 110.9453125 C188.7891144 124.37599142 169.4747711 132.9321973 149 138 C147.7944043 138.29849854 147.7944043 138.29849854 146.56445312 138.60302734 C112.04767232 146.77699735 74.76545032 142.71664273 43 127 C41.87335938 126.45601562 40.74671875 125.91203125 39.5859375 125.3515625 C31.27040703 121.12433579 24.17415949 115.89272553 17 110 C16.18660156 109.35289062 15.37320312 108.70578125 14.53515625 108.0390625 C-1.63642123 94.56748477 -12.57411719 73.84462267 -15 53 C-16.17578957 34.05244022 -12.25101122 15.11339702 0 0 Z " fill="#C9CACA" transform="translate(365,452)"/>
<path d="M0 0 C8.80683239 14.57607247 14.17239622 27.34416147 14.25 44.5625 C14.2809375 46.23795898 14.2809375 46.23795898 14.3125 47.94726562 C14.36851425 60.02533766 11.50653534 70.30287808 6 81 C5.50757813 81.96808594 5.01515625 82.93617188 4.5078125 83.93359375 C0.09363036 92.05442166 -5.52249197 98.5180015 -12 105 C-12.83144531 105.85464844 -13.66289063 106.70929688 -14.51953125 107.58984375 C-39.90350379 132.2719553 -77.81903408 142.62938955 -112.40454102 142.28344727 C-145.96310415 141.53279147 -178.97973608 133.29111176 -205 111 C-206.02132058 109.68292671 -207.02525239 108.35190417 -208 107 C-204.91702588 105.37431783 -201.83355811 103.74957416 -198.75 102.125 C-197.87730469 101.66480469 -197.00460937 101.20460938 -196.10546875 100.73046875 C-195.26113281 100.28574219 -194.41679688 99.84101562 -193.546875 99.3828125 C-192.77182617 98.97434082 -191.99677734 98.56586914 -191.19824219 98.14501953 C-190.1101123 97.57823486 -190.1101123 97.57823486 -189 97 C-188.28739014 96.61779297 -187.57478027 96.23558594 -186.84057617 95.84179688 C-185 95 -185 95 -183.00390625 95.1484375 C-180.45360007 96.23219334 -178.92764897 97.69808941 -176.9375 99.625 C-166.49813325 109.17736173 -153.81423197 115.77174926 -140.3125 119.8125 C-139.62397949 120.01955566 -138.93545898 120.22661133 -138.22607422 120.43994141 C-120.23484282 125.52581701 -96.79676489 125.5380852 -79 120 C-78.26668457 119.77425293 -77.53336914 119.54850586 -76.77783203 119.31591797 C-57.43235141 113.20868401 -39.54596998 102.99809673 -29 85 C-22.03318167 71.56664019 -19.63305235 57.4637032 -22.72265625 42.5 C-23.6472902 39.86460608 -24.69979191 37.46955108 -26 35 C-26.59554687 33.79150391 -26.59554687 33.79150391 -27.203125 32.55859375 C-29.1086 28.89839336 -31.13569511 25.71335759 -33.875 22.625 C-34.57625 21.75875 -35.2775 20.8925 -36 20 C-34.60357071 15.81071212 -31.72168336 14.91932275 -28.0078125 12.98828125 C-27.30606903 12.61519333 -26.60432556 12.24210541 -25.88131714 11.85771179 C-24.39580846 11.07069027 -22.90778322 10.28840333 -21.41748047 9.51049805 C-19.135076 8.31776549 -16.86209222 7.10843228 -14.58984375 5.89648438 C-13.14636322 5.13441213 -11.70236924 4.37331149 -10.2578125 3.61328125 C-9.57647247 3.25083817 -8.89513245 2.88839508 -8.19314575 2.51496887 C-3.34673038 0 -3.34673038 0 0 0 Z " fill="#C9CACA" transform="translate(917,452)"/>
<path d="M0 0 C3.17936807 2.90584639 5.09629801 5.68603765 7.03125 9.5234375 C7.58852783 10.61615967 8.14580566 11.70888184 8.7199707 12.8347168 C9.60108521 14.58715698 9.60108521 14.58715698 10.5 16.375 C11.74976328 18.82894788 13.0056706 21.27973304 14.26171875 23.73046875 C14.73377998 24.65382774 14.73377998 24.65382774 15.21537781 25.59584045 C18.15899474 31.34166793 21.21114926 37.02526193 24.3125 42.6875 C25.04098145 44.019021 25.04098145 44.019021 25.78417969 45.37744141 C28.07653175 49.55051817 30.39380211 53.70806344 32.74609375 57.84765625 C33.38260864 58.96877808 33.38260864 58.96877808 34.03198242 60.11254883 C34.82060673 61.49647463 35.61347201 62.8779959 36.41137695 64.2565918 C39 68.7828905 39 68.7828905 39 71 C12.6 71 -13.8 71 -41 71 C-37.60104975 64.20209949 -34.14784655 57.67879804 -30.25 51.1875 C-29.10745894 49.26989694 -27.96556754 47.35190669 -26.82421875 45.43359375 C-26.21368652 44.40862793 -25.6031543 43.38366211 -24.97412109 42.32763672 C-20.94396069 35.53427952 -16.96398762 28.71134164 -12.97644043 21.89291382 C-8.69300675 14.56974691 -4.38563715 7.2625735 0 0 Z " fill="#033668" transform="translate(612,111)"/>
<path d="M0 0 C4.70549436 5.56416121 6.97362523 11.11057975 6.51171875 18.3984375 C4.98770499 26.14647692 -0.73302491 31.59527551 -7 36 C-16.08912452 41.81360983 -28.89450828 41.55952839 -39.16796875 39.3046875 C-44.54860728 37.31927359 -50.01243003 34.16456394 -54 30 C-54.37417195 28.67754613 -54.71280732 27.34402725 -55 26 C-49.81317015 23.24766656 -44.61656102 20.51454568 -39.41455078 17.79101562 C-36.91112863 16.47790931 -34.4096282 15.16145964 -31.90966797 13.84179688 C-28.19540974 11.88205311 -24.47539302 9.9335833 -20.75216675 7.99093628 C-19.24926574 7.20454998 -17.74822339 6.41460134 -16.24905396 5.62112427 C-14.11875191 4.49446541 -11.98217456 3.38067763 -9.84375 2.26953125 C-9.19760239 1.92420349 -8.55145477 1.57887573 -7.88572693 1.2230835 C-3.34195103 -1.11398368 -3.34195103 -1.11398368 0 0 Z " fill="#FBFCFD" transform="translate(823,503)"/>
<path d="M0 0 C4.68920094 1.42407772 8.94727418 3.37005592 13.27734375 5.6328125 C13.96574844 5.98834198 14.65415314 6.34387146 15.36341858 6.71017456 C17.5568954 7.84441604 19.74716739 8.98470089 21.9375 10.125 C23.37285245 10.86756345 24.80839791 11.60975393 26.24414062 12.3515625 C35.53591282 17.16018048 44.77994041 22.05543558 54 27 C50.76776024 33.72692634 45.09948195 37.75772441 38.140625 40.30859375 C25.95791099 42.99060915 13.88504734 41.73859332 3.25 35.25 C-1.71736415 31.76763457 -5.05338512 27.83984465 -7 22 C-7.93227981 14.14052717 -7.24771444 8.99168206 -2.41015625 2.64453125 C-1.63379244 1.7391319 -0.84335305 0.84335305 0 0 Z " fill="#FCFCFD" transform="translate(460,502)"/>
<path d="M0 0 C5.14824595 2.92743397 8.51024951 6.55576378 11.1875 11.8125 C12.11777312 17.86702758 12.20974875 23.97391504 9.0625 29.375 C5.91964074 33.6071457 2.18314353 36.14728549 -2.8125 37.8125 C-8.32406333 38.29764482 -13.18921062 38.57987316 -18.25 36.1875 C-22.76735707 32.00068125 -27.25101558 27.61877334 -28.18359375 21.296875 C-28.35009526 14.44093047 -27.3425015 10.04799353 -22.8125 4.8125 C-15.84691502 -1.64340803 -9.05419613 -2.82015945 0 0 Z " fill="#134271" transform="translate(1140.8125,329.1875)"/>
<path d="M0 0 C5.14824595 2.92743397 8.51024951 6.55576378 11.1875 11.8125 C12.11777312 17.86702758 12.20974875 23.97391504 9.0625 29.375 C5.91964074 33.6071457 2.18314353 36.14728549 -2.8125 37.8125 C-8.32406333 38.29764482 -13.18921062 38.57987316 -18.25 36.1875 C-22.76735707 32.00068125 -27.25101558 27.61877334 -28.18359375 21.296875 C-28.35009526 14.44093047 -27.3425015 10.04799353 -22.8125 4.8125 C-15.84691502 -1.64340803 -9.05419613 -2.82015945 0 0 Z M-21.125 9.4375 C-24.0306872 13.52698568 -24.31059505 16.8776694 -23.8125 21.8125 C-21.80953332 27.48757225 -18.19899821 31.11925089 -12.8125 33.8125 C-7.43356534 34.48075868 -2.8933496 34.18114264 1.6796875 31.12890625 C5.22999599 28.02928459 6.86694764 24.89774267 7.56640625 20.34765625 C7.76248035 16.14155055 7.41109978 13.31559951 5.6875 9.4375 C1.57280464 5.11706988 -2.91098251 2.65885158 -8.9375 2.3125 C-14.57339095 3.03971174 -17.42273972 5.23493428 -21.125 9.4375 Z " fill="#F1F4F7" transform="translate(1140.8125,329.1875)"/>
<path d="M0 0 C11 0 11 0 14.25 1.5625 C16 4 16 4 15.9375 7.625 C15 11 15 11 13 13 C13.38766305 16.58588324 14.58566252 19.69987921 16 23 C14.35 23 12.7 23 11 23 C10.74605469 22.43410156 10.49210937 21.86820312 10.23046875 21.28515625 C9.88628906 20.55167969 9.54210938 19.81820313 9.1875 19.0625 C8.85105469 18.33160156 8.51460937 17.60070312 8.16796875 16.84765625 C7.06399866 14.66970511 7.06399866 14.66970511 4 14 C4 16.97 4 19.94 4 23 C2.68 23 1.36 23 0 23 C0 15.41 0 7.82 0 0 Z " fill="#EFF2F5" transform="translate(1125,336)"/>
<path d="M0 0 C0.33 0 0.66 0 1 0 C1 7.26 1 14.52 1 22 C2.65 22 4.3 22 6 22 C6 19.03 6 16.06 6 13 C7.32 13.33 8.64 13.66 10 14 C13 19.03571429 13 19.03571429 13 22 C14.32 22 15.64 22 17 22 C17 22.99 17 23.98 17 25 C12.92952653 26.35682449 9.25608283 26.52472254 5 26 C-0.3035228 23.29820537 -4.09832298 19.70503105 -6 14 C-6.50474898 8.78426052 -6.50474898 8.78426052 -6 6 C-3.5625 3.0625 -3.5625 3.0625 -1 1 C-0.67 0.67 -0.34 0.34 0 0 Z " fill="#08396B" transform="translate(1123,337)"/>
<path d="M0 0 C2.31 0 4.62 0 7 0 C6.67 1.65 6.34 3.3 6 5 C4.02 5 2.04 5 0 5 C0 3.35 0 1.7 0 0 Z " fill="#174573" transform="translate(1129,341)"/>
<path d="M0 0 C0 3.81094059 -1.00717021 5.77024137 -3 9 C-5.6875 10.375 -5.6875 10.375 -8 11 C-6.63629701 8.00779732 -5.05091917 5.70973471 -2.875 3.25 C-2.33617187 2.63640625 -1.79734375 2.0228125 -1.2421875 1.390625 C-0.62730469 0.70226562 -0.62730469 0.70226562 0 0 Z " fill="#A9B2BA" transform="translate(618,572)"/>
</svg>
